<mxfile modified="2023-08-15T15:40:46.138Z" host="app.diagrams.net" agent="Mozilla/5.0 (Windows NT 10.0; Win64; x64) AppleWebKit/537.36 (KHTML, like Gecko) Chrome/115.0.0.0 Safari/537.36" etag="A_AGCff68IbfnPp-gpIn" version="21.6.8" type="github">
  <diagram id="Ht1M8jgEwFfnCIfOTk4-" name="Page-1">
    <mxGraphModel dx="869" dy="479" grid="1" gridSize="10" guides="1" tooltips="1" connect="1" arrows="1" fold="1" page="1" pageScale="1" pageWidth="827" pageHeight="1169" math="0" shadow="0">
      <root>
        <mxCell id="0" />
        <mxCell id="1" parent="0" />
        <mxCell id="jZVaUwOg5UY3L9NAnvdq-71" value="AWS Cloud" style="points=[[0,0],[0.25,0],[0.5,0],[0.75,0],[1,0],[1,0.25],[1,0.5],[1,0.75],[1,1],[0.75,1],[0.5,1],[0.25,1],[0,1],[0,0.75],[0,0.5],[0,0.25]];outlineConnect=0;gradientColor=none;html=1;whiteSpace=wrap;fontSize=12;fontStyle=0;shape=mxgraph.aws4.group;grIcon=mxgraph.aws4.group_aws_cloud_alt;strokeColor=#232F3E;fillColor=none;verticalAlign=top;align=left;spacingLeft=30;fontColor=#232F3E;dashed=0;labelBackgroundColor=none;container=1;pointerEvents=0;collapsible=0;recursiveResize=0;" parent="1" vertex="1">
          <mxGeometry x="263" y="125" width="1097" height="757" as="geometry" />
        </mxCell>
        <mxCell id="jZVaUwOg5UY3L9NAnvdq-109" style="edgeStyle=elbowEdgeStyle;rounded=0;orthogonalLoop=1;jettySize=auto;html=1;endArrow=open;endFill=0;strokeColor=#545B64;strokeWidth=2;fontSize=14;" parent="1" target="jZVaUwOg5UY3L9NAnvdq-72" edge="1">
          <mxGeometry relative="1" as="geometry">
            <mxPoint x="240" y="382" as="sourcePoint" />
            <Array as="points">
              <mxPoint x="339" y="322" />
            </Array>
          </mxGeometry>
        </mxCell>
        <mxCell id="jZVaUwOg5UY3L9NAnvdq-110" style="edgeStyle=elbowEdgeStyle;rounded=0;orthogonalLoop=1;jettySize=auto;html=1;endArrow=open;endFill=0;strokeColor=#545B64;strokeWidth=2;fontSize=14;" parent="1" target="jZVaUwOg5UY3L9NAnvdq-74" edge="1">
          <mxGeometry relative="1" as="geometry">
            <mxPoint x="240" y="418" as="sourcePoint" />
          </mxGeometry>
        </mxCell>
        <mxCell id="jZVaUwOg5UY3L9NAnvdq-111" value="" style="edgeStyle=elbowEdgeStyle;rounded=0;orthogonalLoop=1;jettySize=auto;html=1;endArrow=open;endFill=0;strokeColor=#545B64;strokeWidth=2;fontSize=14;" parent="1" source="jZVaUwOg5UY3L9NAnvdq-74" target="jZVaUwOg5UY3L9NAnvdq-75" edge="1">
          <mxGeometry relative="1" as="geometry" />
        </mxCell>
        <mxCell id="jZVaUwOg5UY3L9NAnvdq-112" value="" style="edgeStyle=elbowEdgeStyle;rounded=0;orthogonalLoop=1;jettySize=auto;html=1;endArrow=open;endFill=0;strokeColor=#545B64;strokeWidth=2;fontSize=14;" parent="1" source="jZVaUwOg5UY3L9NAnvdq-75" target="jZVaUwOg5UY3L9NAnvdq-80" edge="1">
          <mxGeometry relative="1" as="geometry" />
        </mxCell>
        <mxCell id="jZVaUwOg5UY3L9NAnvdq-116" value="" style="edgeStyle=elbowEdgeStyle;rounded=0;orthogonalLoop=1;jettySize=auto;html=1;endArrow=open;endFill=0;strokeColor=#545B64;strokeWidth=2;fontSize=14;" parent="1" source="jZVaUwOg5UY3L9NAnvdq-77" target="jZVaUwOg5UY3L9NAnvdq-76" edge="1">
          <mxGeometry relative="1" as="geometry" />
        </mxCell>
        <mxCell id="jZVaUwOg5UY3L9NAnvdq-117" value="" style="edgeStyle=elbowEdgeStyle;rounded=0;orthogonalLoop=1;jettySize=auto;html=1;endArrow=open;endFill=0;strokeColor=#545B64;strokeWidth=2;fontSize=14;" parent="1" source="jZVaUwOg5UY3L9NAnvdq-77" target="jZVaUwOg5UY3L9NAnvdq-78" edge="1">
          <mxGeometry relative="1" as="geometry" />
        </mxCell>
        <mxCell id="jZVaUwOg5UY3L9NAnvdq-119" value="" style="edgeStyle=elbowEdgeStyle;rounded=0;orthogonalLoop=1;jettySize=auto;html=1;endArrow=open;endFill=0;strokeColor=#545B64;strokeWidth=2;fontSize=14;" parent="1" source="jZVaUwOg5UY3L9NAnvdq-78" target="jZVaUwOg5UY3L9NAnvdq-91" edge="1">
          <mxGeometry relative="1" as="geometry">
            <Array as="points">
              <mxPoint x="1170" y="232" />
            </Array>
          </mxGeometry>
        </mxCell>
        <mxCell id="jZVaUwOg5UY3L9NAnvdq-123" value="" style="edgeStyle=orthogonalEdgeStyle;rounded=0;orthogonalLoop=1;jettySize=auto;html=1;endArrow=open;endFill=0;strokeColor=#545B64;strokeWidth=2;fontSize=14;" parent="1" source="jZVaUwOg5UY3L9NAnvdq-78" target="jZVaUwOg5UY3L9NAnvdq-93" edge="1">
          <mxGeometry relative="1" as="geometry">
            <Array as="points">
              <mxPoint x="1170" y="272" />
              <mxPoint x="1170" y="295" />
            </Array>
          </mxGeometry>
        </mxCell>
        <mxCell id="jZVaUwOg5UY3L9NAnvdq-113" value="" style="edgeStyle=elbowEdgeStyle;rounded=0;orthogonalLoop=1;jettySize=auto;html=1;endArrow=open;endFill=0;strokeColor=#545B64;strokeWidth=2;fontSize=14;" parent="1" source="jZVaUwOg5UY3L9NAnvdq-80" target="jZVaUwOg5UY3L9NAnvdq-81" edge="1">
          <mxGeometry relative="1" as="geometry" />
        </mxCell>
        <mxCell id="jZVaUwOg5UY3L9NAnvdq-114" value="" style="edgeStyle=elbowEdgeStyle;rounded=0;orthogonalLoop=1;jettySize=auto;html=1;endArrow=open;endFill=0;strokeColor=#545B64;strokeWidth=2;fontSize=14;" parent="1" source="jZVaUwOg5UY3L9NAnvdq-81" target="jZVaUwOg5UY3L9NAnvdq-82" edge="1">
          <mxGeometry relative="1" as="geometry" />
        </mxCell>
        <mxCell id="jZVaUwOg5UY3L9NAnvdq-115" value="" style="edgeStyle=elbowEdgeStyle;rounded=0;orthogonalLoop=1;jettySize=auto;html=1;endArrow=open;endFill=0;strokeColor=#545B64;strokeWidth=2;fontSize=14;" parent="1" source="jZVaUwOg5UY3L9NAnvdq-81" target="jZVaUwOg5UY3L9NAnvdq-77" edge="1">
          <mxGeometry relative="1" as="geometry" />
        </mxCell>
        <mxCell id="jZVaUwOg5UY3L9NAnvdq-128" value="" style="edgeStyle=elbowEdgeStyle;rounded=0;orthogonalLoop=1;jettySize=auto;html=1;endArrow=open;endFill=0;strokeColor=#545B64;strokeWidth=2;fontSize=14;" parent="1" source="jZVaUwOg5UY3L9NAnvdq-81" target="jZVaUwOg5UY3L9NAnvdq-89" edge="1">
          <mxGeometry relative="1" as="geometry" />
        </mxCell>
        <mxCell id="jZVaUwOg5UY3L9NAnvdq-126" value="" style="edgeStyle=elbowEdgeStyle;rounded=0;orthogonalLoop=1;jettySize=auto;html=1;endArrow=open;endFill=0;strokeColor=#545B64;strokeWidth=2;fontSize=14;" parent="1" source="jZVaUwOg5UY3L9NAnvdq-82" target="jZVaUwOg5UY3L9NAnvdq-97" edge="1">
          <mxGeometry relative="1" as="geometry">
            <Array as="points">
              <mxPoint x="1079" y="602" />
            </Array>
          </mxGeometry>
        </mxCell>
        <mxCell id="jZVaUwOg5UY3L9NAnvdq-138" value="" style="edgeStyle=elbowEdgeStyle;rounded=0;orthogonalLoop=1;jettySize=auto;html=1;endArrow=open;endFill=0;strokeColor=#545B64;strokeWidth=2;fontSize=14;elbow=vertical;" parent="1" source="jZVaUwOg5UY3L9NAnvdq-84" edge="1">
          <mxGeometry relative="1" as="geometry">
            <mxPoint x="240" y="757" as="targetPoint" />
          </mxGeometry>
        </mxCell>
        <mxCell id="jZVaUwOg5UY3L9NAnvdq-132" value="" style="edgeStyle=elbowEdgeStyle;rounded=0;orthogonalLoop=1;jettySize=auto;html=1;endArrow=open;endFill=0;strokeColor=#545B64;strokeWidth=2;fontSize=14;" parent="1" source="jZVaUwOg5UY3L9NAnvdq-85" target="jZVaUwOg5UY3L9NAnvdq-87" edge="1">
          <mxGeometry relative="1" as="geometry" />
        </mxCell>
        <mxCell id="jZVaUwOg5UY3L9NAnvdq-140" value="" style="edgeStyle=elbowEdgeStyle;rounded=0;orthogonalLoop=1;jettySize=auto;html=1;endArrow=open;endFill=0;strokeColor=#545B64;strokeWidth=2;fontSize=14;" parent="1" edge="1">
          <mxGeometry relative="1" as="geometry">
            <mxPoint x="472" y="756" as="sourcePoint" />
            <mxPoint x="240" y="681" as="targetPoint" />
            <Array as="points">
              <mxPoint x="410" y="721" />
            </Array>
          </mxGeometry>
        </mxCell>
        <mxCell id="jZVaUwOg5UY3L9NAnvdq-160" value="" style="edgeStyle=elbowEdgeStyle;rounded=0;orthogonalLoop=1;jettySize=auto;html=1;endArrow=open;endFill=0;strokeColor=#545B64;strokeWidth=2;fontSize=14;" parent="1" edge="1">
          <mxGeometry relative="1" as="geometry">
            <mxPoint x="472" y="756.5" as="sourcePoint" />
            <mxPoint x="378" y="756.5" as="targetPoint" />
          </mxGeometry>
        </mxCell>
        <mxCell id="jZVaUwOg5UY3L9NAnvdq-136" value="" style="edgeStyle=elbowEdgeStyle;rounded=0;orthogonalLoop=1;jettySize=auto;html=1;endArrow=open;endFill=0;strokeColor=#545B64;strokeWidth=2;fontSize=14;" parent="1" source="jZVaUwOg5UY3L9NAnvdq-87" target="jZVaUwOg5UY3L9NAnvdq-75" edge="1">
          <mxGeometry relative="1" as="geometry" />
        </mxCell>
        <mxCell id="jZVaUwOg5UY3L9NAnvdq-142" value="" style="edgeStyle=elbowEdgeStyle;rounded=0;orthogonalLoop=1;jettySize=auto;html=1;endArrow=open;endFill=0;strokeColor=#545B64;strokeWidth=2;fontSize=14;" parent="1" source="jZVaUwOg5UY3L9NAnvdq-88" target="jZVaUwOg5UY3L9NAnvdq-86" edge="1">
          <mxGeometry relative="1" as="geometry" />
        </mxCell>
        <mxCell id="jZVaUwOg5UY3L9NAnvdq-144" value="" style="edgeStyle=elbowEdgeStyle;rounded=0;orthogonalLoop=1;jettySize=auto;html=1;endArrow=open;endFill=0;strokeColor=#545B64;strokeWidth=2;fontSize=14;" parent="1" source="jZVaUwOg5UY3L9NAnvdq-90" target="jZVaUwOg5UY3L9NAnvdq-88" edge="1">
          <mxGeometry relative="1" as="geometry">
            <mxPoint x="848" y="912" as="targetPoint" />
          </mxGeometry>
        </mxCell>
        <mxCell id="jZVaUwOg5UY3L9NAnvdq-121" value="" style="edgeStyle=elbowEdgeStyle;rounded=0;orthogonalLoop=1;jettySize=auto;html=1;endArrow=open;endFill=0;strokeColor=#545B64;strokeWidth=2;fontSize=14;" parent="1" source="jZVaUwOg5UY3L9NAnvdq-91" target="jZVaUwOg5UY3L9NAnvdq-92" edge="1">
          <mxGeometry relative="1" as="geometry" />
        </mxCell>
        <mxCell id="jZVaUwOg5UY3L9NAnvdq-147" value="" style="edgeStyle=elbowEdgeStyle;rounded=0;orthogonalLoop=1;jettySize=auto;html=1;endArrow=open;endFill=0;strokeColor=#545B64;strokeWidth=2;fontSize=14;" parent="1" source="jZVaUwOg5UY3L9NAnvdq-97" target="jZVaUwOg5UY3L9NAnvdq-98" edge="1">
          <mxGeometry relative="1" as="geometry" />
        </mxCell>
        <mxCell id="jZVaUwOg5UY3L9NAnvdq-155" value="" style="edgeStyle=elbowEdgeStyle;rounded=0;orthogonalLoop=1;jettySize=auto;html=1;endArrow=open;endFill=0;strokeColor=#545B64;strokeWidth=2;fontSize=14;" parent="1" source="jZVaUwOg5UY3L9NAnvdq-97" target="jZVaUwOg5UY3L9NAnvdq-96" edge="1">
          <mxGeometry relative="1" as="geometry">
            <mxPoint x="1390" y="504" as="targetPoint" />
          </mxGeometry>
        </mxCell>
        <mxCell id="jZVaUwOg5UY3L9NAnvdq-146" value="" style="edgeStyle=elbowEdgeStyle;rounded=0;orthogonalLoop=1;jettySize=auto;html=1;endArrow=open;endFill=0;strokeColor=#545B64;strokeWidth=2;fontSize=14;" parent="1" source="jZVaUwOg5UY3L9NAnvdq-98" target="jZVaUwOg5UY3L9NAnvdq-90" edge="1">
          <mxGeometry relative="1" as="geometry" />
        </mxCell>
        <mxCell id="jZVaUwOg5UY3L9NAnvdq-151" value="" style="edgeStyle=elbowEdgeStyle;rounded=0;orthogonalLoop=1;jettySize=auto;html=1;endArrow=open;endFill=0;strokeColor=#545B64;strokeWidth=2;fontSize=14;" parent="1" source="jZVaUwOg5UY3L9NAnvdq-99" target="jZVaUwOg5UY3L9NAnvdq-97" edge="1">
          <mxGeometry relative="1" as="geometry" />
        </mxCell>
        <mxCell id="jZVaUwOg5UY3L9NAnvdq-149" value="" style="rounded=0;orthogonalLoop=1;jettySize=auto;html=1;endArrow=open;endFill=0;strokeColor=#545B64;strokeWidth=2;fontSize=14;" parent="1" source="jZVaUwOg5UY3L9NAnvdq-100" target="jZVaUwOg5UY3L9NAnvdq-97" edge="1">
          <mxGeometry relative="1" as="geometry" />
        </mxCell>
        <mxCell id="jZVaUwOg5UY3L9NAnvdq-124" value="" style="edgeStyle=elbowEdgeStyle;rounded=0;orthogonalLoop=1;jettySize=auto;html=1;endArrow=open;endFill=0;strokeColor=#545B64;strokeWidth=2;fontSize=14;" parent="1" source="jZVaUwOg5UY3L9NAnvdq-78" target="jZVaUwOg5UY3L9NAnvdq-94" edge="1">
          <mxGeometry relative="1" as="geometry">
            <mxPoint x="1108" y="281.5" as="sourcePoint" />
            <mxPoint x="1490.2117381489843" y="345" as="targetPoint" />
            <Array as="points">
              <mxPoint x="1170" y="332" />
            </Array>
          </mxGeometry>
        </mxCell>
        <mxCell id="jZVaUwOg5UY3L9NAnvdq-129" style="edgeStyle=elbowEdgeStyle;rounded=0;orthogonalLoop=1;jettySize=auto;html=1;endArrow=open;endFill=0;strokeColor=#545B64;strokeWidth=2;fontSize=14;exitX=1;exitY=0.5;exitDx=0;exitDy=0;elbow=vertical;" parent="1" source="jZVaUwOg5UY3L9NAnvdq-62" target="jZVaUwOg5UY3L9NAnvdq-83" edge="1">
          <mxGeometry relative="1" as="geometry">
            <mxPoint x="220" y="462" as="sourcePoint" />
            <mxPoint x="482" y="428" as="targetPoint" />
          </mxGeometry>
        </mxCell>
        <mxCell id="jZVaUwOg5UY3L9NAnvdq-130" style="edgeStyle=elbowEdgeStyle;rounded=0;orthogonalLoop=1;jettySize=auto;html=1;endArrow=open;endFill=0;strokeColor=#545B64;strokeWidth=2;fontSize=14;" parent="1" target="jZVaUwOg5UY3L9NAnvdq-85" edge="1">
          <mxGeometry relative="1" as="geometry">
            <mxPoint x="240" y="452" as="sourcePoint" />
            <mxPoint x="482" y="428" as="targetPoint" />
            <Array as="points">
              <mxPoint x="410" y="512" />
            </Array>
          </mxGeometry>
        </mxCell>
        <mxCell id="jZVaUwOg5UY3L9NAnvdq-158" style="edgeStyle=elbowEdgeStyle;rounded=0;orthogonalLoop=1;jettySize=auto;html=1;endArrow=open;endFill=0;strokeColor=#545B64;strokeWidth=2;fontSize=14;" parent="1" target="jZVaUwOg5UY3L9NAnvdq-73" edge="1">
          <mxGeometry relative="1" as="geometry">
            <mxPoint x="240" y="382" as="sourcePoint" />
            <mxPoint x="349" y="290" as="targetPoint" />
            <Array as="points">
              <mxPoint x="430" y="312" />
            </Array>
          </mxGeometry>
        </mxCell>
        <mxCell id="-QjtrjUzRDEMRZ5MF8oH-46" value="" style="rounded=0;whiteSpace=wrap;html=1;fillColor=#EAEDED;fontSize=22;fontColor=#FFFFFF;strokeColor=none;labelBackgroundColor=none;" parent="1" vertex="1">
          <mxGeometry x="1544.5" y="37" width="539" height="1080" as="geometry" />
        </mxCell>
        <mxCell id="-QjtrjUzRDEMRZ5MF8oH-36" value="1" style="rounded=1;whiteSpace=wrap;html=1;fillColor=#007CBD;strokeColor=none;fontColor=#FFFFFF;fontStyle=1;fontSize=22;labelBackgroundColor=none;" parent="1" vertex="1">
          <mxGeometry x="1563" y="49.5" width="40" height="38" as="geometry" />
        </mxCell>
        <mxCell id="-QjtrjUzRDEMRZ5MF8oH-37" value="2" style="rounded=1;whiteSpace=wrap;html=1;fillColor=#007CBD;strokeColor=none;fontColor=#FFFFFF;fontStyle=1;fontSize=22;labelBackgroundColor=none;" parent="1" vertex="1">
          <mxGeometry x="1561.5" y="171.5" width="40" height="38" as="geometry" />
        </mxCell>
        <mxCell id="-QjtrjUzRDEMRZ5MF8oH-38" value="3" style="rounded=1;whiteSpace=wrap;html=1;fillColor=#007CBD;strokeColor=none;fontColor=#FFFFFF;fontStyle=1;fontSize=22;labelBackgroundColor=none;" parent="1" vertex="1">
          <mxGeometry x="1561.5" y="291.5" width="40" height="38" as="geometry" />
        </mxCell>
        <mxCell id="-QjtrjUzRDEMRZ5MF8oH-39" value="4" style="rounded=1;whiteSpace=wrap;html=1;fillColor=#007CBD;strokeColor=none;fontColor=#FFFFFF;fontStyle=1;fontSize=22;labelBackgroundColor=none;" parent="1" vertex="1">
          <mxGeometry x="1561.5" y="405.5" width="40" height="38" as="geometry" />
        </mxCell>
        <mxCell id="-QjtrjUzRDEMRZ5MF8oH-40" value="5" style="rounded=1;whiteSpace=wrap;html=1;fillColor=#007CBD;strokeColor=none;fontColor=#FFFFFF;fontStyle=1;fontSize=22;labelBackgroundColor=none;" parent="1" vertex="1">
          <mxGeometry x="1563" y="522.5" width="40" height="38" as="geometry" />
        </mxCell>
        <mxCell id="-QjtrjUzRDEMRZ5MF8oH-41" value="6" style="rounded=1;whiteSpace=wrap;html=1;fillColor=#007CBD;strokeColor=none;fontColor=#FFFFFF;fontStyle=1;fontSize=22;labelBackgroundColor=none;" parent="1" vertex="1">
          <mxGeometry x="1564" y="637.5" width="40" height="38" as="geometry" />
        </mxCell>
        <mxCell id="-QjtrjUzRDEMRZ5MF8oH-42" value="7" style="rounded=1;whiteSpace=wrap;html=1;fillColor=#007CBD;strokeColor=none;fontColor=#FFFFFF;fontStyle=1;fontSize=22;labelBackgroundColor=none;" parent="1" vertex="1">
          <mxGeometry x="1563.5" y="753.5" width="40" height="38" as="geometry" />
        </mxCell>
        <mxCell id="-QjtrjUzRDEMRZ5MF8oH-43" value="8" style="rounded=1;whiteSpace=wrap;html=1;fillColor=#007CBD;strokeColor=none;fontColor=#FFFFFF;fontStyle=1;fontSize=22;labelBackgroundColor=none;" parent="1" vertex="1">
          <mxGeometry x="1564" y="871.5" width="40" height="38" as="geometry" />
        </mxCell>
        <mxCell id="-QjtrjUzRDEMRZ5MF8oH-44" value="9" style="rounded=1;whiteSpace=wrap;html=1;fillColor=#007CBD;strokeColor=none;fontColor=#FFFFFF;fontStyle=1;fontSize=22;labelBackgroundColor=none;" parent="1" vertex="1">
          <mxGeometry x="1562" y="991.5" width="40" height="38" as="geometry" />
        </mxCell>
        <mxCell id="-QjtrjUzRDEMRZ5MF8oH-47" value="Autenticación Facial" style="text;html=1;resizable=0;points=[];autosize=1;align=left;verticalAlign=top;spacingTop=-4;fontSize=30;fontStyle=1;labelBackgroundColor=none;" parent="1" vertex="1">
          <mxGeometry x="36.5" y="26.5" width="320" height="40" as="geometry" />
        </mxCell>
        <mxCell id="-QjtrjUzRDEMRZ5MF8oH-48" value="AT&amp;amp;T - Metamap - Idemia - INE" style="text;html=1;resizable=0;points=[];autosize=1;align=left;verticalAlign=top;spacingTop=-4;fontSize=16;labelBackgroundColor=none;" parent="1" vertex="1">
          <mxGeometry x="36.5" y="76.5" width="250" height="30" as="geometry" />
        </mxCell>
        <mxCell id="SCVMTBWpLvtzJIhz15lM-1" value="" style="line;strokeWidth=2;html=1;fontSize=14;labelBackgroundColor=none;" parent="1" vertex="1">
          <mxGeometry x="32.5" y="101.5" width="1060" height="10" as="geometry" />
        </mxCell>
        <mxCell id="SCVMTBWpLvtzJIhz15lM-6" value="&lt;span&gt;Lorem ipsum dolor sit amet, consectetur adipiscing elit, sed do eiusmod tempor incididunt ut labore et dolore magna aliqua. Ut enim ad minim veniam, quis nostrud exercitation ullamco laboris nisi ut aliquip ex ea commodo consequat. Duis aute irure dolor in reprehenderit in voluptate velit esse cillum dolore eu fugiat nulla pariatur. Excepteur sint occaecat cupidatat non proident, sunt in culpa qui officia deserunt mollit anim id est laborum.&lt;/span&gt;&lt;br&gt;" style="text;html=1;align=left;verticalAlign=top;spacingTop=-4;fontSize=14;labelBackgroundColor=none;whiteSpace=wrap;" parent="1" vertex="1">
          <mxGeometry x="1614.5" y="49" width="449" height="118" as="geometry" />
        </mxCell>
        <mxCell id="SCVMTBWpLvtzJIhz15lM-7" value="&lt;span&gt;Lorem ipsum dolor sit amet, consectetur adipiscing elit, sed do eiusmod tempor incididunt ut labore et dolore magna aliqua. Ut enim ad minim veniam, quis nostrud exercitation ullamco laboris nisi ut aliquip ex ea commodo consequat. Duis aute irure dolor in reprehenderit in voluptate velit esse cillum dolore eu fugiat nulla pariatur. Excepteur sint occaecat cupidatat non proident, sunt in culpa qui officia deserunt mollit anim id est laborum.&lt;/span&gt;&lt;br&gt;" style="text;html=1;align=left;verticalAlign=top;spacingTop=-4;fontSize=14;labelBackgroundColor=none;whiteSpace=wrap;" parent="1" vertex="1">
          <mxGeometry x="1613.5" y="172" width="450" height="115" as="geometry" />
        </mxCell>
        <mxCell id="SCVMTBWpLvtzJIhz15lM-9" value="&lt;span&gt;Lorem ipsum dolor sit amet, consectetur adipiscing elit, sed do eiusmod tempor incididunt ut labore et dolore magna aliqua. Ut enim ad minim veniam, quis nostrud exercitation ullamco laboris nisi ut aliquip ex ea commodo consequat. Duis aute irure dolor in reprehenderit in voluptate velit esse cillum dolore eu fugiat nulla pariatur. Excepteur sint occaecat cupidatat non proident, sunt in culpa qui officia deserunt mollit anim id est laborum.&lt;/span&gt;&lt;br&gt;" style="text;html=1;align=left;verticalAlign=top;spacingTop=-4;fontSize=14;labelBackgroundColor=none;whiteSpace=wrap;" parent="1" vertex="1">
          <mxGeometry x="1613.5" y="290" width="450" height="117" as="geometry" />
        </mxCell>
        <mxCell id="SCVMTBWpLvtzJIhz15lM-10" value="&lt;span&gt;Lorem ipsum dolor sit amet, consectetur adipiscing elit, sed do eiusmod tempor incididunt ut labore et dolore magna aliqua. Ut enim ad minim veniam, quis nostrud exercitation ullamco laboris nisi ut aliquip ex ea commodo consequat. Duis aute irure dolor in reprehenderit in voluptate velit esse cillum dolore eu fugiat nulla pariatur. Excepteur sint occaecat cupidatat non proident, sunt in culpa qui officia deserunt mollit anim id est laborum.&lt;/span&gt;&lt;br&gt;" style="text;html=1;align=left;verticalAlign=top;spacingTop=-4;fontSize=14;labelBackgroundColor=none;whiteSpace=wrap;" parent="1" vertex="1">
          <mxGeometry x="1613.5" y="406" width="450" height="121" as="geometry" />
        </mxCell>
        <mxCell id="SCVMTBWpLvtzJIhz15lM-11" value="&lt;span&gt;Lorem ipsum dolor sit amet, consectetur adipiscing elit, sed do eiusmod tempor incididunt ut labore et dolore magna aliqua. Ut enim ad minim veniam, quis nostrud exercitation ullamco laboris nisi ut aliquip ex ea commodo consequat. Duis aute irure dolor in reprehenderit in voluptate velit esse cillum dolore eu fugiat nulla pariatur. Excepteur sint occaecat cupidatat non proident, sunt in culpa qui officia deserunt mollit anim id est laborum.&lt;/span&gt;&lt;br&gt;" style="text;html=1;align=left;verticalAlign=top;spacingTop=-4;fontSize=14;labelBackgroundColor=none;whiteSpace=wrap;" parent="1" vertex="1">
          <mxGeometry x="1614.5" y="523" width="449" height="114" as="geometry" />
        </mxCell>
        <mxCell id="SCVMTBWpLvtzJIhz15lM-12" value="&lt;span&gt;Lorem ipsum dolor sit amet, consectetur adipiscing elit, sed do eiusmod tempor incididunt ut labore et dolore magna aliqua. Ut enim ad minim veniam, quis nostrud exercitation ullamco laboris nisi ut aliquip ex ea commodo consequat. Duis aute irure dolor in reprehenderit in voluptate velit esse cillum dolore eu fugiat nulla pariatur. Excepteur sint occaecat cupidatat non proident, sunt in culpa qui officia deserunt mollit anim id est laborum.&lt;/span&gt;&lt;br&gt;" style="text;html=1;align=left;verticalAlign=top;spacingTop=-4;fontSize=14;labelBackgroundColor=none;whiteSpace=wrap;" parent="1" vertex="1">
          <mxGeometry x="1614.5" y="639" width="450" height="118" as="geometry" />
        </mxCell>
        <mxCell id="SCVMTBWpLvtzJIhz15lM-13" value="&lt;span&gt;Lorem ipsum dolor sit amet, consectetur adipiscing elit, sed do eiusmod tempor incididunt ut labore et dolore magna aliqua. Ut enim ad minim veniam, quis nostrud exercitation ullamco laboris nisi ut aliquip ex ea commodo consequat. Duis aute irure dolor in reprehenderit in voluptate velit esse cillum dolore eu fugiat nulla pariatur. Excepteur sint occaecat cupidatat non proident, sunt in culpa qui officia deserunt mollit anim id est laborum.&lt;/span&gt;&lt;br&gt;" style="text;html=1;align=left;verticalAlign=top;spacingTop=-4;fontSize=14;labelBackgroundColor=none;whiteSpace=wrap;" parent="1" vertex="1">
          <mxGeometry x="1614.5" y="754" width="449" height="113" as="geometry" />
        </mxCell>
        <mxCell id="SCVMTBWpLvtzJIhz15lM-14" value="&lt;span&gt;Lorem ipsum dolor sit amet, consectetur adipiscing elit, sed do eiusmod tempor incididunt ut labore et dolore magna aliqua. Ut enim ad minim veniam, quis nostrud exercitation ullamco laboris nisi ut aliquip ex ea commodo consequat. Duis aute irure dolor in reprehenderit in voluptate velit esse cillum dolore eu fugiat nulla pariatur. Excepteur sint occaecat cupidatat non proident, sunt in culpa qui officia deserunt mollit anim id est laborum.&lt;/span&gt;&lt;br&gt;" style="text;html=1;align=left;verticalAlign=top;spacingTop=-4;fontSize=14;labelBackgroundColor=none;whiteSpace=wrap;" parent="1" vertex="1">
          <mxGeometry x="1614.5" y="873" width="449" height="124" as="geometry" />
        </mxCell>
        <mxCell id="SCVMTBWpLvtzJIhz15lM-15" value="&lt;span&gt;Lorem ipsum dolor sit amet, consectetur adipiscing elit, sed do eiusmod tempor incididunt ut labore et dolore magna aliqua. Ut enim ad minim veniam, quis nostrud exercitation ullamco laboris nisi ut aliquip ex ea commodo consequat. Duis aute irure dolor in reprehenderit in voluptate velit esse cillum dolore eu fugiat nulla pariatur. Excepteur sint occaecat cupidatat non proident, sunt in culpa qui officia deserunt mollit anim id est laborum.&lt;/span&gt;&lt;br&gt;" style="text;html=1;align=left;verticalAlign=top;spacingTop=-4;fontSize=14;labelBackgroundColor=none;whiteSpace=wrap;" parent="1" vertex="1">
          <mxGeometry x="1614.5" y="992" width="449" height="115" as="geometry" />
        </mxCell>
        <mxCell id="jZVaUwOg5UY3L9NAnvdq-59" value="Actors" style="swimlane;fontSize=14;align=center;swimlaneFillColor=#f4f4f4;fillColor=#f4f4f4;startSize=33;container=1;pointerEvents=0;collapsible=0;recursiveResize=0;" parent="1" vertex="1">
          <mxGeometry x="30" y="125" width="210" height="177" as="geometry" />
        </mxCell>
        <mxCell id="jZVaUwOg5UY3L9NAnvdq-60" value="Clientes finales" style="outlineConnect=0;fontColor=#232F3E;gradientColor=none;fillColor=#232F3E;strokeColor=none;dashed=0;verticalLabelPosition=bottom;verticalAlign=top;align=center;html=1;fontSize=12;fontStyle=0;aspect=fixed;pointerEvents=1;shape=mxgraph.aws4.user;labelBackgroundColor=none;" parent="jZVaUwOg5UY3L9NAnvdq-59" vertex="1">
          <mxGeometry x="16" y="54" width="78" height="78" as="geometry" />
        </mxCell>
        <mxCell id="jZVaUwOg5UY3L9NAnvdq-61" value="Dealers" style="outlineConnect=0;fontColor=#232F3E;gradientColor=none;fillColor=#232F3E;strokeColor=none;dashed=0;verticalLabelPosition=bottom;verticalAlign=top;align=center;html=1;fontSize=12;fontStyle=0;aspect=fixed;pointerEvents=1;shape=mxgraph.aws4.corporate_data_center;labelBackgroundColor=none;" parent="jZVaUwOg5UY3L9NAnvdq-59" vertex="1">
          <mxGeometry x="130" y="54" width="53" height="78" as="geometry" />
        </mxCell>
        <mxCell id="jZVaUwOg5UY3L9NAnvdq-62" value="Channels" style="swimlane;fontSize=14;align=center;swimlaneFillColor=#f4f4f4;fillColor=#f4f4f4;startSize=33;container=1;pointerEvents=0;collapsible=0;recursiveResize=0;" parent="1" vertex="1">
          <mxGeometry x="30" y="320" width="210" height="560" as="geometry" />
        </mxCell>
        <mxCell id="jZVaUwOg5UY3L9NAnvdq-101" value="1" style="rounded=1;whiteSpace=wrap;html=1;fillColor=#007CBD;strokeColor=none;fontColor=#FFFFFF;fontStyle=1;fontSize=22;labelBackgroundColor=none;" parent="jZVaUwOg5UY3L9NAnvdq-62" vertex="1">
          <mxGeometry x="143" y="61" width="40" height="38" as="geometry" />
        </mxCell>
        <mxCell id="RjxbD7o49rSYXZ3SKn72-13" value="e-commerce" style="shape=image;verticalLabelPosition=bottom;labelBackgroundColor=default;verticalAlign=top;aspect=fixed;imageAspect=0;image=data:image/png,iVBORw0KGgoAAAANSUhEUgAAASoAAAECCAYAAABJxZp0AAAAAXNSR0IArs4c6QAAAARnQU1BAACxjwv8YQUAAAAJcEhZcwAAJOgAACToAYJjBRwAAB+xSURBVHhe7d0HeBVV2gfwl2qAJPSmkIROQltqQg8dROwo2D71W9FvVYqKAgIJvQSwACqwq6gLrjQbCKhAEiDASickoEISegKELiGIfPedfVmFe2fmJrnlzPD/PU8ezxluQu59nD9nzrxzTqGc3KvXCQBAYYXlvwAAykJQAYDyEFQAoDwEFQAoD0EFAMpDUAGA8hBUAKA8BBUAKA9BBQDKQ1ABgPIQVACgPAQVACgPQQUAyvPr6glnz56llSu/pcSEBEpJSaHDhw7TxYsX6OrVq/IKAPC1YsWKUWBgEFUPqU4NGjSgDh07Us+evahMmTLyCt/zS1AlJyfT9Lg4+uKLZZSTkyNHAUBVAQEB9MADD9Jrr7+uhZev+TSozp07R7Exo2nunDl07do1OQoAVlGkSBF65tlnaeKkyRQcHCxHvc9nQbV79256vH8/+vnnn+UIAFhVWFgYLV66jBo1aiRHvMsnQbVxwwZ68IH7tREVANgDj6iWffEltWvfXo54j9eDateuXdS9axeEFIANcVj9sHYdNW7cWI54h1eDisMpsmULSk9PlyMAYDc1atSgTVv+7dW7gl4Nqv974Xn66MMPpWeM32xkZBRVrlJZuz0KAP7B5UGZJzJpy5bNlJaWJkeN8QT7+x/MkZ7neS2odu7cSW2iIun333+XI6516tyZYmPHUGRUlBwBAFVs3rTJcX7GUPy6dXLEtcKFC2ujqiZNmsgRz/JaZXrclCmGIcVvjG9xrly1GiEFoKio1q1p1ervaMLESdo5q4fPdT7nvcUrI6pTJ09SzRphlJubK0ecTZ4ylQYPGSI9AFDdjOnTacTwYdJzVrx4cUpLz6DyFSrIEc/xyohq+fLlhiHVrXt3hBSAxbzy6qvUpWtX6Tnjc37FihXS8yyvBFVCQoK0XBszdpy0AMBKzM5ds3M/v7wSVCl7k6XlLDw8nJo1ayY9ALCSFi1aUL169aTnbG/yHml5lleC6vDhw9JyholzAGvjCXY9hw4dkpZneSWozp8/Ly1nVatWlRYAWJHROXzhwgVpeZZX7voFFNcv2Bw5arTja5T09PH6VGNjY2nLli2Uk3NZjgLcfkqUKElt27almDFjqHbt2nLUGE9sx02dSosXfU5ZWVl0/br+aR4QUIKiHFc6ox3nG0/NmBk/bpzja6z0nDkyRVqeo2RQ8XpVnTp28Fo6A1hRuXLlaP3GJKpVq5Yc0ceLAHybxztwQUFBFJ+43nS9KX8ElVcu/Qpq9KiRCCmAW2RnZ2tXGWa+W706zyHF+JyLceNqxx+UDKpNSUnSAoA/S3Lj3Ni0Kf/nT1LSRmmpRcmgunwZc1IArgQHB0lLH693nl+qnntKBhUAuPbQw32lpe+++++33QokCCoAi+jRsye9NnSo9PTxncGZs2ZT0aJF5Yj1KXnXr4xjeKu3O03z5s2pdZs20gOwP94Bpk2bttTr7rupUKFCctQc70+wbOlSOnkyS478B88Bb9u2TXo3K1GiBJ05p18HyVCeIIyCiv9FGT9hovQAIK9GjXxTq7FyRdWgwqUfACgPQQUAykNQAYDyEFQAoDwEFQAoD0EFAMpDUAGA8hBUAKA8BBUAKA9BBQDKQ1ABgPIQVACgPAQVACgPQQUAykNQAYDyEFQ+cuL4cRr48kvUtEljimrVkiZNnEi//vqr/CkAGEFQ+UBWZia1a9uW5s6ZQ6mpqbRz504aExtDrVo0p6SNau76AaASBJUPTJo0kY4cOSy9P/zyyy/UtUtnGvraqxhdARhAUPnA+sREaTn7/fffaea772J0BWAAQeUDJUqWlJa+G6Or1159BaMrgFsgqHzg/vsfkJYxHl3NmjkToyuAWyCofGDgoEHUs1cv6ZnD6ArgZggqH+Bda5d98SXFTZuubUfkjhujq5bNm2F0Bbc9BJWPFC5cmF4eOJC2bt9BUa1by1FzBw4coG5du9BbM2bIEYDbD4LKx2rVqkVr18XnaXR17do1Gj7sDW2EBXA7QlD5QX5HVyOGD6P9+/dLD+D2gaDyoxujq2nTZ1BJN0oYcnNzaVqc6624AeysUE7u1evS9piA4sWk5WzkqNGOr1HSc61McBDl5ORI72avDR1K4ydMlJ59/PTTT/TC8wNMJ855Yr5OnTpUKjCQSpUqRYGl/vPfkqVKUlBQkNYuVqy41ubwCy4dTKVKOv7c0Q6UP+d2kOP7SzraAQEB8pPhdjFq5JsUN9X1P3g8HXHm3HnpuTZ+3DjH11jpOXNkirQ8B0GlEL7T997s2TR61EiflSXwZeh/Qq0UlXaEGocYB5h2rAS3/wjAEo4+AtD6EFQCQVUw33/3HfW5p7f0rImDShv1OcIsMLAURoAKQVAJBFXB/Pbbb1Ttzqp09uxZOQI3YARYcAgqgaAquMf796elS5dID7ztzyPA8uXLUcfoaHr9jWFUrlw5eYV9WDGocNdPUT169pQW+AL/w3j61Ck6dCiDduzYQW+/9Ra1a9OasrOz5RXgTwgqRXXr3o0KFSokPfCHgwcPohxEEQgqRVWteic1btxYeq61bNmSmjRpQrVr16YqVatq8zFFihSRPwVPSIiPlxb4E4JKYWaXf7FjxtKWH7dSckoqpWccopOns+nS5RzKPnuOjhw9Rvt//kWrfk9cv4FWrlpNi5cupfmffEKzZr9HwcHB8lOclSlT5qYA5NfergFYtJj+fCv4DoJKYT16GAfV6tWrpHUzvptVoWJFCg0NpYYNG1KryEjq1Lkz9elzL/Xr15/++txzFNGggbzaWbVq1W4KwKxTp90KwNnvvU9TpsZRzZo15Sc547ttVhoB8ucH/oegUlhkVJQ2utGzepXroHJHeHi4tJz9/PPPWonErcwC8H//+lcaNHgwhTj+XE/TZs2cRoDnL16i45lZdDA9nXbtSaakzVtozdp12tI4ny5YQO9/MIemz3iLunTtKj/FNW8EYLNmzaUF/oSgUljRokWpc+cu0nPGDyinO07u/AgPj5CWsytXrmjLy/hK8eLFqWzZsnTnnXdRvXr1HOHQjNq2a0d39+5Nffs+Qs88+yy9+NJLVL9+ffkOZxyi7l4CL1qy5L+XwGYLGnKwgv8hqBRndiLld1RlNKJi+/alSksdWY5Rl55KlSpJ6w96I8B7773vv5fAZUrrj1g5QHHppwYEleLMyhS+W71aWnkTHmEcVKmO0YlqMrMypeWsUuXK0sqb7du3SctZo0aNtLAC/0NQKc6sTCE+fp12qZZX1apVN7zzl5qSIi118EaueqpUriIt950/f15bn14PLvvUgaCyAKMyhUuXLtGG9eullzf1DOZ8lLz0yzK49KvsfOlnZtfOndqKFXqaNkVQqQJBZQH5LVMwYzRPxRP1vASyKnjRwDNnzkjPmas5KjPbt2+XlmvNmuOOnyoQVBZgVqaQ73kqgzt//OxbWlqa9Pzv5Mksun5d//n5yvm49NthEFQ8N9XAoNYMfAtBZQFmZQr79u3LV5mC2Z2/1FR15qkyDe74sfxc+mEi3ToQVBbhjTKF8Aj9ERVT6c6f0UQ6q1wpb3f9MJFuLQgqi/BGmUJISAgFBgZKz1lqqjpBlWkSVHktT8BEurUgqCzCG2UKHHxcCa5nn1KXfiZBlcfJdEykWwuCykK8UaZQ32BCne/8GY06fCnLoNiTV6U0qglzBRPp1oKgshBvlClEGMxT8U44GRkZ0vOvvD4+YwYT6daCNdMtxGzTBx5V8AoCecFL7RrdMaxbt67hPJYrPEnNk9Wu8MoGvC9hXvFD0ufOnZPezXhEZXYH81Y7DeaoeBUIXrLGrrC5g0BQeQ82ffA+DikOK7vC5g7gddj0wfswka4eBJXFYNMH78JEupoQVBbjzqYPkH+YSFcTgsqCcPnnPahIVxOCyoLMyhQg/1CRribc9bMgszKFYsWKUffuPaRn7kruFfrh+++l54zLCerW1a9gv9XmLZu1XYddKVe+PLWOai0992RkpFNycrL0nHXu0oVKBJSQnrH9+/cZPuPHG0vwmu12hvIEgaDyPrMyhX0//UxhYWHSM8brTpUvW0b3M/+fp5+mOXPnSc9czx7dKX7dOundrF379vTDmrXScw+fVHxy6ck8eYpKly4tPWNPP/UU/etfn0nvZjw3dSr7jO3nqFCeAD5jNk+Vl9UUeGspLuzU4++Hk40enwkICHA7pJhRRTpv5ICJdDUhqCzK06spGC2it8/fQWX4+Iz7qyaYLe2C+il1IagsytOrKdQ3eASFT/AjRw5Lz/eMdp+pnIcF87C0i3UhqCzMk6spmG2ftS91n7R8z2jRvLwsQWy2tAtKE9SFoLIwT66mYHTpx1L8uH1Wpod2nzFb2gWbjaoLQWVhZps+5GVCvVatWnTHHXdIz5m/1k/nUowz2dnSc5aXJV62bdsqLWeYSFcbgsrCeNOHLl26Ss8ZL3zn7qYP/LOMlojx150/3n3GaF7J3cn0w4cPYY10C0NQWVz3HsaFnXkZVal4589Tu898PH++4XZbrVpFSgtUhKCyuB6OoPJUmYLRnT+ugj9+/Jj0fMcTu88cO3aUZs+aJT1n/Pl1jI6WHqgIQWVxVapW9ViZgtmdP39sn2VU7MnMdp/havunnnzScJdlfmTG3Sp+8A8ElQ14qkzB7M6fP+apzC79KhsE1cmsLOpzT2/T9//cgOelBapCUNmAp8oU+OFjfqBZjz/u/BmNqPgupau7nhxQM6ZPpyZNGtP6xEQ56lpISCg99vjj0gNVIahswFNlChxSXKagxx8jKqPHZ4KCg+mbb76m92bPpuHD3qAnHnuMmjf9C9UIC6URw4dR9unT8kp9cdOnoSzBAhBUNuDJMgWjyz9fBVVubi6lpaVRYkICpaTslaPOTp08SX0feoheGTKY3poxg5YsWUx79+7Vaq/c8fgTT9J9990vPVAZgsomzFZTcPfuX0QD/aDiEYrZXTh38FpVvF3V119/pY2G3hwxnJ55+mnq3CmaatWoQWVLB1N4vbrUvVtX2rVrl3yXZ7WKjKRZjr8brAFBZRPdu3c3LFNYsWK5tIwZlSgws1EVj4b4Sw9PbN91Z1WKatWSHnn4YW00NH3aNPps4QJK2riRjh49oq2P5U0tW7akr77+Rlt7CawBQWUTZmUKvILnjh07pKfP7M7fli1btNHQrXNDHdq3oxqhodqihxw4qurXrz+t/v4HKlu2rBwBK0BQ2Uivu++WljMepfAIxuhSikdCvIie0chs9KiR2mjo1rmhfzsCjAtCjR538ac777yLPl2wgOZ/8gmVLFlSjoJVIKhs5OG+jxiGDD/v1rZ1FD1w/30UGzOa3nh9qNNoqGmTxoaPmlgNb/X+1tvv0F7HJWtfx+cD1oSgshFeAYA3OjDCd8RWfvstTZ40id55+21LjIbcwSPBatWqU+s2bejJp56iGW+9Tdt37qIdu3bT//3tb5iPsjgElc1MmjzFsGjTqoKDg7UdjHv26kXPDRhAMbFj6MOPPqJVq7+j1P0/aRsS/HLwIK2LT6B5f/8H/e3FFykiwni+DawDQWUzPKHe95FHpWcNhQsX1pZWbtGiBT300MM0eMgQmj7jLVqybJm2fdWx4yco69Rp2rZjJ3351dc0c9ZsGj5iBD32+BMU3akT1ahRA0WbNoegshle33zltyukp4ZSpUpR/fr1tcvSZ559lkbHxN40Gjp7/gKlZWTQhqRNtOCzz2jylKn04ksv0T339NEeGOa9AOH2hqCymZnvvmu4UoCnuTMaOn3mLO3cvYe+XbmK3v9gDo14802MhiBPEFQ2wqOpWTPflZ5nYDQEKkBQ2ci777xjOJriotA2bdtS+QoVtLtkfCfsxp2yRx/tp+1CjdEQqAhBZRM8mpo9a6b0XIuNHUNr18XT0WPH6dLlnJvulH386afaVvkYDYGKEFQ2YTY3xaOfx594QnoA1oKgsgF35qbeGDbclvVVcHtAUNkARlNgdwgqi8NoCm4HCCqLmzVzJkZTYHsIKgvjh4jnzZ0rPdeGDR+B0RRYHoLKwpKTkw03BcVoCuwCQWVhaWkHpeUaj6Z44wcAqyuUk3vV46ukBRTXv9QYOWq042uU9FzjBdx4h1tXuHqaCxOB6Msvv6B+j+gvBteyVSsKCgqSHtxQOrg0dercmZ5+5pnbsrJ+1Mg3KW7qVOndjJ9W4EJgI+PHjXN8jZWeM0emSMtzEFQWxmuX87LAkD/86BA/GnS7LapnxaDCpZ+FNWrUiCoZbGkOxjYlJWk1aKA+BJWF8YPFAwYMkB7kx8qV30oLVIagsrghr7yqLcMC+WPldeJvJwgqi+P1ohYvXaYt1wJ5161bd2mByhBUNlCnTh0aNHiw9MBdPBLlFUlBfbjrZwN8+RJRvx6lp6fLEde4Qp1DjV//008/mV728BxYZFSU9PyLt/Tirb6M8LLI/P64dozf39WrxnefQkJCKXX/fu193k5QniAQVL61Yf166tqls/RcG/D88xQTE6ut7smOHTtKbwx9nRYvXqT19exO3kt169aVnn8cOHCAGkaEG26Myuu1T50WR3fdVU3rZ58+TWPHjqE5H3xg+H0rV63WaqpuJyhPAL9Yu3aNtFx7eeBAenfmrP+GFLuxxbnZ7sFrfvhBWv6zds0aw7B58MGH6J8LF/43pBivTvr2O+/SwEGD5Ihra9b4//2BOQSVDezetVtazgIDA7XNOvVMnjpFu2TSk5y8R1r+s2eP/vvj331K3FTdrex5MwrevFTPnj3+f39gDkFlAydPnZSWsxYtW2phpYdHIUaXdlmZWdLyn5NZ+u+vZs2aVL16iPSc8V1RfpRIz6mT+j8b1IGgsoHfr12TljN3JoqNXmN0yeUrRr9DQd/fNYPPDtSBoLKBP8893Wr7tm105coV6Tk7feoU7d+/X3rOKlTU/9m+Ur6C/m44v/zyi2PUlyk9Z7m5ubR161bpOatQsaK0QGUIKhuIiIiQljNe/XNaXJz0nMXEjDa87R8R0UBa/mP0O/CIiN+DnhnTp2t3APUYfXagDgSVDURHd5KWaxPG8+3kcTeNrC5cuECvvjKE/j5vnhxxjTca9Tez3+GjDz+kwYMGauvH38DvdeKECTRurP6NBGb22YEaEFQ2wNutV65SRXrOuLCT615Cq1eju3v1pB7du1GN0BCaPWuWvMK1hg0bUuPGjaXnPw0aNKAmTZpIz7UP3n9fe0/du3XV3mNYSHUaOybWcA6qYqVK1LVbN+mByhBUNsCV2EOGvCI9fWfPntVqkhLi4+nixYtyVN+rQ4dKy/9ee/11aem7dOkSJSYkaO/RaMOLGwYOHIQt6S0CQWUTf3vxRQoPD5dewbVr35769esvPf/jwtQOHTtKr+C4JIMLYcEaEFQ2wSODfy78zLC40V28GN/8jz/WLaL0l4/mz6cqVatKL/+4ruzTBQspICBAjoDqEFQ2wnM5S5d9QaVLl5Yjece3679ZvkLJZWO4OJV/t4KEFReALlq8xHTOC9SCoLKZ9h060Jp18flaTI8ruDdsTFL6JObllxPXr6dWkZFyxH316tWj+MT12s0HsBYElQ3x3bp/b91GkyZPMbwbeENoaCjNfu99SnCcxGFhYXJUXSEhoRSfkEjvvf+BW78vX8pOnDRZ+0w46MB6sMyLzXExJ98Fi49fRykpKVolOhUqRJUqVqJGjRtR585dtIlzoweTVcalF0kbN2qrIOzZvYcyszL5mRtt9QQu5uQ6KR5BYbfoP2A9KoGgAlAX1qMCAPACBBUAKA9BBQDKQ1ABgPIQVACgPAQVACgPQQUAykNQAYDyEFQAoDwEFQAoD0EFAMpDUAGA8hBUAKA8BBUAKA9BBQDKs9x6VLwu+F+aNpPef1SqVJEe7vsINW/eXI6Yu3r1Ki36/F+UlJTk+Lv0tzwHsJudO7bT3r17pXczLJwnChpUeniFSl56d9DgwXJE36+//kq97+5FmxwhBQB/wMJ5XsZL0o4YPoxSU1PliL5JEycgpAAsxFZzVLx99/JvvpGevq++/FJaAGAFSgZVyVKlpJV3V66YXzJiTgrAtYKce96kZFB17JD/rbs7uPG9ntwaHMBOojtGS0stSgbVuAkTtO2O8qpfv/5uhVBMbIxHtgYHsJPyFSrQ2PHjpacWJe/6sYyMDJo8aSJt2byZLl++LEedFSpUSNtk85FHHqXnX3jB7f3pjh076vj5k2jjhg3aXUCA2xXf6YuMiqLhI0Zom7uasU15QlCpklqdkivDhg+n2DH6bxIA1BYbM1r7R96V4sWL0/mLl6TnOV659AsKDpaWs6NHj0oLAKzoyBH9c9jo3C8IrwRVWKj+8JG33wYA60rauEFazozO/YLwSlA1bNRIWs4OHDiAYksAi+I53YMHD0rPWYOGDaXlWV4Jqo4md95GjnxTqyQHAOvgc5bPXSOdOnWSlmd5Jah639OHAgICpOeMU9norgEAqGfc2DGGV0N8zve6u7f0PMsrQVWmTBl68KGHpefapIkTafSokdpjLwCgLj5HR745QvdO3w0PPdxXO/e9wSvlCYwfDm7ZvBn99ttvcsS1Zs2aabVVPXr2pCJFishRAPA3DqjVq1ZpI6kdO3bIUdeKFi1K23bspHr16skRz/JaULHXXn2FZs2cKT1jXInesmVLqlKlivamAcA/eHBx4sQJ+vHHHyn79Gk5amzgoEE0NW6a9DzPq0HFFd9tW0e5tfQKAFhTREQEbUjaRCVLlpQjnueVOaob+BdftGQpVahYUY4AgJ3w84F8jnszpJhXg4rVqVOHvlm+gipWqiRHAMAOeACyfMW3VLt2bTniPV4PKta0aVOKT0ikJk2ayBEAsLJGjRpR4voN2rntCz4JKlarVi1KcLyxN4YNozvuuEOOAoCV8LnLCwus35hENWvWlKPe59XJdD28xMq0uDj6bOFCOnPmjBwFAFWVLVuW+vXvT4OHvEKhXnqez4hfguqGK1euUPy6dZSYmEApKSl0KCODLly4qLtEDDjjpZezs7Ol54wnO4sXKy4992VmntB9zImX8ihfvoL08ub06VOUm5srvZvxWmKVK1eRnvtyr+bS6VOnpOesXLlyjpGA/pMScLNixYpRcHAQVQ8J0e7o8aq50Z06+fVKyK9BBQU3/6OP6IXnB0jP2fadu7T/2fKqTVQkbd++XXo34/A7cvSYtmhhXly/fp2q3XWnbqhw8W/S5i3Scx/vUde86V+k52zO3Hn0P08/LT2wIp/NUYF3ZGSkS8sZB0l+h+kdo/XXzuagSU5Olp77+HuMRj7tO3SQVt7wezQKzfT0NGmBVSGoLC49PUNaznjkUyqfu4q0b28cGusTE6XlPrPv6ZjPjQUCAwMN19jPyDgkLbAqBJXFHTqkH1QFWcSsbbt2hs9erlu7VlruW7tmjbSc8d/Vpm1b6eWd0Xs1GnWCNSCoLC7DYEQV4sZC/XpKly5tWPf2ww/fu/0cGOPX8vfo4b+rIE/eh4aGScuZ0WcE1oCgsjC+e3b8+DHpOQsNK9ht5E6dO0vLGe8MNGZMrPTMxcSMppwc/c1h+a5SQRi9V/6McCfZ2hBUFnbkyBHD9byMRhnuuOeePtJybe6cOTRv7lzp6ePX/X3ePOm5du+990krf4zeK39Ghw8flh5YEYLKwjLSjedeClqY17pNG6pfv770nHG5wcCXX6LnBzynFfHe6ujRI9qfDRr4svZaPeHh4RTVurX08sfsvZp9VqA2BJWF8SatRkLDCjaiYvzIkxEOoI/nz6d6depQp+iOWjDxF7fr162r/ZlRSLE3hg+XVv6ZvVezzwrUhqCyMG/VUP1Zv/6PaSMrMzwHxOtpczDxF7fdmRfiO32PPtpPevkXEhJiWEuFO3/WhqCyMKP6oILUUP0Zn/wffjRfe9bL0/jRFv7ZRgHjLtRS2RuCysKMRgme3AiyRo0atGjxEo8E3w3aooqOnxnmgcvTG1BLZV8IKgvzVg2VK/x4y1dff2M4anEX/wxeTLFd+/ZyxDNQS2VfCCqL8nYNlSscLD9u3WpYX2WGv3fT5i1a5bunmdVS6a3aAOpDUFmUt2uo9Nx1VzVauWo1fb54MbVo0UKOmuPXLlqyRPteT0zyu2JWS8WfGVgTgsqivF1DZea+++7Xdh7Zun0HjR03nvr0uVdbTqZylSraF7f52LjxE7T93vi1BS3qNINaKvvCelQW5a11qKwM61LZF0ZUFuWLGiqr4fdsVOqAdamsC0FlUd5ah8rKUEtlXwgqi/LWOlRWh1oqe0JQWZQva6isBLVU9oSgsiB/1FBZBdalsicElQX5q4bKCsxqqbAulTUhqCzI3zVUKjN777x3JFgP6qj8iHdlSUhIoJycy3LEPakpqbRixXLpOXviyaeoSpXK0ru9nDiRSf/89BPpOevd+x4KjwiXnnsCAkpQdHS0x59NBPchqPyAdyD+32efpc8WLpAjYAWPPf4E/f0f/9B2dAbfwifuB7yGOELKehYu+Kfp2u/gHQgqP1i06HNpgdV8/vm/pAW+hKDygwvnz0sLrOb8uXPSAl9CUPlBq8hIaYHVREZFSQt8CZPpfnD48CFq7fgf/tTJk3IErKBCxYq0afNmql49RI6AryCo/CQtLY1GjxxJ6+LX0aWLF+UoqCgwKIiiO0bT2PHjtfXjwfcQVACgPMxRAYDyEFQAoDwEFQAoD0EFAMpDUAGA8hBUAKA8BBUAKA9BBQDKQ1ABgPIQVACgPAQVACgPQQUAykNQAYDyEFQAoDwEFQAoD0EFAMpDUAGA8hBUAKA8BBUAKA9BBQDKQ1ABgPIQVACgPAQVACgPQQUAykNQAYDyEFQAoDwEFQAojuj/Aefl97LAX3A8AAAAAElFTkSuQmCC;" vertex="1" parent="jZVaUwOg5UY3L9NAnvdq-62">
          <mxGeometry x="39.05" y="230" width="103.95" height="90" as="geometry" />
        </mxCell>
        <mxCell id="RjxbD7o49rSYXZ3SKn72-14" value="" style="edgeStyle=orthogonalEdgeStyle;rounded=0;orthogonalLoop=1;jettySize=auto;html=1;" edge="1" parent="jZVaUwOg5UY3L9NAnvdq-62">
          <mxGeometry relative="1" as="geometry">
            <mxPoint x="54.44" y="-53" as="sourcePoint" />
            <mxPoint x="54.44" as="targetPoint" />
          </mxGeometry>
        </mxCell>
        <mxCell id="RjxbD7o49rSYXZ3SKn72-16" value="" style="group" vertex="1" connectable="0" parent="jZVaUwOg5UY3L9NAnvdq-62">
          <mxGeometry x="70" y="61" width="53" height="120" as="geometry" />
        </mxCell>
        <mxCell id="jZVaUwOg5UY3L9NAnvdq-65" value="Mi AT&amp;amp;T" style="outlineConnect=0;fontColor=#232F3E;gradientColor=none;strokeColor=none;fillColor=#277116;dashed=0;verticalLabelPosition=bottom;verticalAlign=top;align=center;html=1;fontSize=12;fontStyle=0;shape=mxgraph.aws4.mobile_client;labelBackgroundColor=none;" parent="RjxbD7o49rSYXZ3SKn72-16" vertex="1">
          <mxGeometry width="53" height="120" as="geometry" />
        </mxCell>
        <mxCell id="RjxbD7o49rSYXZ3SKn72-15" value="" style="shape=image;verticalLabelPosition=bottom;labelBackgroundColor=default;verticalAlign=top;aspect=fixed;imageAspect=0;image=data:image/png,iVBORw0KGgoAAAANSUhEUgAAAIAAAACKCAYAAABipUKtAAAAAXNSR0IArs4c6QAAAARnQU1BAACxjwv8YQUAAAAJcEhZcwAAJOgAACToAYJjBRwAABXfSURBVHhe7Z17dBRVnsdvQtIhCXmHEGAkMDgCGgSEEXFVFNAJu+6oMzIZxBXQUcaz4wHRdWHO7gHWsxv0+ACcPziiExlmjiDrAC47RBlHHE0Ad5C3g8KQgDwCeZOEpJOQ2vrevje5XanuruquV7rrc849XVVd3em693vv/T1uVeIkGeISs8SzV5cYxRVAjOMKIMZxBRDjuAKIcRzjBVRVVZFjx46R2tpaUldXR5qbm9k70UdCQgLJycmhJT8/n9x1113sHRuAAOzi1KlTUklJiTR58mSIMGZLZmam9Nhjj0k7duyQ2tvbWe1Ygy0CqK+vl5YtWyYlJyerVkgslylTpki7d+9mNWU+lgrA6/VKL730kpSVlaV68W7pLbNmzZKOHj3Kas48LBXAiy++KMXFxalesFv6lrFjx0qVlZWs9szBEgGg58+bN0/1It0SvMiGolReXs5q0ngsEcDmzZtVL84t2sott9witba2sto0FtMF8OWXX7rGngHlkUceYTVqLKYL4LbbblO9ILfoL7t27WK1ahymCmDbtm2qF+KW8Mr48eNZzRqHqZHAwsJCcvz4cbZnLwPGTiVJ0+cQz+ibSWJ+ATtKiGdQJomP90XE26/U01dwramWdJz5K/GW7yCde/+HHbWfrVu3kocffpjtRY5pAjhx4gQZN24c27OeuNzvkOQfLyHJU2aRgTlDexo5XCCOtiOfkbadG8i1E/vZUespLi4mslHN9iLHNAGsXr2aLF++nO1ZR/LcZSRlxk9JyuDh7IjxdLS1kOY975O299cQqfYcO2oN6enppKamhng8HnYkMkwTgGz8kf37respKYteIRmz5pKERGMqRgvd3d2kWR4Vmn+1xFIhyMYgKSoqYnuRYVo6GNk9K0DDD916nuTMnm9p4wNMKxkTp5Nhbx4g6Sv/mx01HyPr1hQBdHV10ZSumWCOH/ybr21peCVcCBBi4rR/ZEfNo7q6mm1FjikCOHfuHBWBWaDx0esGpmezI84AQsz7l7fYnnk4fgTA3GgmqQtWRWzV92euXbvGtiKn39Qiej0fXr3l2+mrE2n4aBPb8oHf7WT6hQBQiRkvlPYEZPDa/M0huu0UMOrVlW0kV9c/z474yCn5X0vsgnBxvADQ+HlvfEa6Lp9lR3w0vnAvqd3ymunTTSjw95sO/ZlceGpyn8bHb0/Kyad2gVNF4GgB8Mb3JA8inV/tZUd7aXu3hJz/0RDa8zraWtlR80Gjt9VcoH8Xf//Kyh+rxgGyVmyhtgqKU0XgaAFkl+ykjR8K9LxLc0eScz+bRBul9duTpL2pgb0bOV2dHbTB0dMvv7mcNnrtkxP69HiR7DfKSep1N7A9uaJlEeQuXe84m8CUSODp06fJ6NGj2V54pK98X/ate5dLN3z+AWl55Qm2px30uvisISQ+YzBJHDOFHfWRgBzBwFTScf4UO+Kjq7qSXDt7gnQ3XNKdCELSKfuXvwnooiKnUPPYGLYXHo8++ijZtMnf2AwXRwoAlThs9U625wO98OIc8+L7kYKenfaLNSTt5jtDuqhqxqIejBSAI6eAhO+OZ1u9IMiS+fJutucc0PAIAyMwhWiglvhEyuR72Zb9OFIAXaePsi1/0m6YaGnMPRhJf/8zOs/raXhOnCeZbdmPIwWAfDsMOTVQ2cgBoAGsBD0dqWY0OmL+eU+VUCNPT8NzOi+dYVv240gBgIZVPwno2sHAQgNACMgGmmFZww5Bg2e+/BH9O9956yDJLX6ONnqkySfvwT+xLftxjBGIRlT60jiW98bnsiuYyo4EBos0OmsvkK66i6Tz67+Q7sYa3/H/+9Dve6lXkJnH9nwkTZ3te5Vtj3i5cbW4nuEC97Rmfq97iJHM+wd9CaSo9AKCVYTSJeyvYES7/MwdfoLEdKLXu4k6L4Au2LzV1wvVQKTtwrL7A9oF/QG1xk/5+St0Okmea/3SOY4jBJB8/1M0KBMMGIb1z9xOhYCIHOIC/QGEjRHEQqRSbHxMbxkz59Lt1Bk/pa924AgBpE6eQZKEpdrBgBAwImDYRDIIo4ITxYCGR8ay+pc/7BPB9Nk2n/UYk8mDh5liyGrBdgFg+IfRhcrQ69ohGYRRAWKofulx2tMQs7czQygmiZCxVC4hx/XyBJfIwHv/iW1Zi+1G4KDn3yZZd/yQbqMnVz89tY83EA5UWJNm0Pi/Z/j1NPgyMCOLvWsM+L1dV1uJt/Io8X6xK6Q1j7k+e84S1dgBRgsIRgtR5QVkv1Eh+9bfY3tEHtK/kXv137E948FQ67nVt6R6wIixJCF/FN3mxKekk8QhBeTalVrqUop0tzTStLTeJBHEGCxBBJTuYTCiSgC5Gw7TOVDkas15Ur/8fkNGAjtBzCHtkWV+aeFA2CUA222Aqwf6JnhwVw/mSaeuogkFopOIHub/6681Nb6d2C+A9c9Tw0kJjCRUIEKxdlnIeuB5guG/v0TvVdC7ZL3t6Gdsy1oc4QbWLf+HgHH/tBsm0YwbhIC51ClAlOjpvNF5niCc5BC8ltZ3VrA9a3FULgAraJX2gBLYB21/+aPlN2ZCfPz28iTZaDUyX4DAFmIbWonKXABHdAtDgQRQ29cHaPKn4+Anht22nTT7CdlDGEcSho6kCSLxGQJGg0AWYhkANo8W7yKqBQCo27R8k26/HUNph+yqdXvbSCdb59d1sYpcO/tXui3CM4AAjQzMbGg1xMYHcInF/UBEjQBCKR6RwfTiFwwP4NgNhNpUsdMvRIyMZ9Ko8ZpcwahxA5N/sCCohY/IGiqEZwLtDPEaBa5DmR9AVtCudLftXkDaL9ayrcDwTCBdj88SQP1JDLTH4+4hWci4DtFWQePnFM2n21JHG321ElsFAOMNytcT8OEJIIgBN2mgYo28CcQokCdAfB+C5XcPiQ2PkQ8uJG98oLw/wQpstQEwx2NtH6z5y8/cGbFbByElTphO4/uYT+M9WN4VejlZpFDjs7mJLvbsOH2YePdsDeqR4LqzF67qs7ZQqzsYNUYgegEWWwIj7pgJBLwKfq+BuPKIJ360IiaIkP0DWMKu1f0MlRTCiKZlfWBUuYFYE8d7QrQkgZSg4TP++bWQeQHc26jl2qPGCwBNH7/LtnqTQKiwaIAO9bh5ZPXOkI2PULgdwrddAEgGiUYcTQL91we2LpSMBJ4jGPJuZc/NI1poPfAx27IW2wUAap+b4ScCRONyi5fSlGp/SQnzbCBsGmQD9eQKYETalQxyhAAw9CHgA/9eBMYSUsKoWKcJgfd0ZTYwHOq3Wv/EUY7jcgFIBmXcfr9qTN7OR7SiwT3f/wHNISSPmWxYNjCcW8WjygtQA7098+evBs0B8Eygd/8u4t31NjtqDLyxE2+aRjwF40hi7jBD078c3vj4e3oEHfUC4NAY+Uxtz/+FILo7O4iX3Vou3h8YCJ7yBYnDryfxScmWZAQRJawvXUF9fhi77bs3uQII1gswLaRNLdIkBKeD8HDTywvptULgnu9O0LwcnBNVcQAOKiSQoYfMGW7+wJDpxLi/FmDgIhmExsa1oudjdGv+9b+xM+zBMQLgoFcEAvMlTw/jLqBA6widAn4fficifGIWEOsb4ea2Ht+nOYxsFo6zAbAwAk/p0moZI2qIm0sHjplCH8po5YoeJfDnvXXVpF22P9p2vtmncfFbc1dspgYlzsXDJfXM/ZyoNgJhC+ChEN5vv5GHy/vYUe2gkpPunkPnViR6zMoIireFQbCdhz8NuLoJ14QniOHxNhykiZHaDoeo9wK4CPDPsho3/aemDFko8J38lrDEG6eReNna1wr1KJrYE0e+KNPca3nDKx8dp+c+QDViwg3kIkDvRZaw8dVFts+XWoExi1vCkuFaKqYkGINaFn4GIyq9ACXoZXioAnoLsoTIqOVsOKT7FnKrwNTDk0D8ljAzGt9oHDsCiChX0GD+bT2+l7R9uFH3o1yNBPcPJN9TrOlGkXAfdatGTEwBSnzz6Vp5Pr3Dr2fBmm47f4q0H9tLOo8ENsQiBcN64s3Te/7xpNZ7/+AK1q97xtDfFZMC4AQSggiWl+E/f2L5Fr2nXx4tON2Nl3saA42qfGQc4v8wEPHMogEZuWE/Ng6jFBa76E30aCGmBcCBEPC/g1InzzTFzQsXRCpb935gSsNzYsIIDAWMRMypMBTtjgzyJeB4ThEilWh8OmUECG07iX45AqBiu04eDOiPw2jE6l88G8iM6CAa3Ft9hv1z6e1+8ztWBiVNmklat60zzR5x/BSAf2w4dGjw5/5FCjKECXkjNFc0dx/5snDcN6AFrPXvvnql5/lAakEpXzj6SZI2dTaN7+u51TscFi1aRNavX8/2IgQCMJqOjg4pMTERwjK1yBUv5W44LA3del7KfPkjSXbLVM8zo8ijkDTo+bck2e+XrtteIw3e+A09pnau0WXFihWspiPHlBEAjBw5kpw5Y81j0dG7xbuI4QV0ykM0nsqNRSGRrhhCD08YVUiXg2HhiCdzsF9MovH3vwo7rh8OpaWlZMGCBWwvMkwTwOzZs0lZWRnbswYIIXX240R87ByH3r4lD+N0W3h+gBLu/tFt2f0LtAgF1n5LWamlDc/Zt28fmTrVmHsnTBMA5qinn36a7VkLdxGRIg71yBk9wMvA+n21VK9V5OfnkwsXLpC4uDh2JDJME8DFixfJ8OHDYWOwI/YAMeAxrHhiKAy/hJRUTUvL6IjBbvjEVNIhFyckoww1AGVMEwCwYxrQCp3XVf45FTAi/WwWFRUVZNq0aWzPACAAszhy5Ig0YMAACMwtBpTi4mJWs8ZhqgDA/PnzVS/GLfpKUlKSVFVVxWrVOEwXwKVLl6QRI0aoXpRbtJeSkhJWo8ZiugDAgQMHpJSUFNULc0voYsbQz7FEAGDLli2qF+eW4EU2+KSrV6+yWjQeywQAysvLpZycHNULdUvfMm/ePMnr9bLaMwdLBQAqKyulmTNnql6wW3wlMzNTWrduHasxc7FcAJzdu3dLhYWFqhUQq8Xj8UiLFy+W6uvrWS2Zj20CAN3d3VJFRYW0dOlSqaCgQLVSor0ga1pUVCRt2LBBqqurYzVjHaZGAvXS0tJCamtriVwRpLm5mR2NPhISEohsC9GSl+e/JtFqHCUAF+vpt2sCXYzBFUCM4wogxnEFEOO4AohxXAHEOK4AYhxXADGOK4AYJ6oE8M4775CsrCy6ZBqvzz77LHvHn5UrV9JzjCqjRo0ijY2+ew44e/bsoX//nnvuob8FBdsLFy6k76mB99W+P9yC7wsJQsHRQENDA02j4pLEUlpays7oRXmOEeWTTz5h3y5JCxYsUD1HLDgHv5mDz6udF2kJRdQIAA2tVgF33303O6OX6dOnq54bScE6B4B0rngcfwv38qEoF8jiXA7EkJGR4fd+pAXfF4qoSQZNmjSJHDp0iG7LlU4+/fRTug3kxqH3KooEGoY54vApN1zQe/Hw3ShVVVV0OuCo3cOH34jfypEbnsgjF93GNMKvQQ28J05rr7/+Opk4cSLb6wve498dECqDfg56Hy4FBarHvtibxJ6mFf5ZFK134+I8/pkHHniAHe2LOBKIU0colNOEns8GIiqMwDVr1rAtQh588EHaG/HK2bhxI9uyjmA9U56W2Baho4adRIUAxAZesmSJ3yvA0AoPwSmIja6cmqzGcQIoO9tKi1bQsNwFKygo6Ol5eJ0wYQLdBlaMAuJ8G+zvie+5AlDwxJ8ukuP1XrYXGrXezxENMBh9Zg+34rSDv6X8PRAq4gD8d8BYtVsA/doIFI0/FO6KceBaie/rebRKuJ8TDUEUuKf4HfJIJcmN3XMcRqoYB9CCGUZgWAI4Wtcu7TrTwvZ8YP/eHWeksb/7m/TqQWtWt2qxukWLGw2gFf4ZFD0CAPgt4ueVASp5auojVi04xgtYsb+WbDjeG/rccuoKG7o7yJWObvLqoXp6TC/43MKPff+cWQvi8C8OvyLKYXn79u1szzyUIVjRRpHFRP1524d+hm4BfNvSRfZdaiM35STRfRhsSz+/TLefuDGTpCX6vvK9k32XdUMUj8tCeU1uaDXKzrRQAWkBDcnnUnk4DRiogQBQ8RwzvQEe5FHO/RzkA4IFlADyFBAQihWei24BlJ1toa8ZnnjSJDfWs59fovuv3ZFH/uPWXHJTtk8YIjjvvg/OUqF8KAsGPb2iuo296wPC+qqhg6TL36sFsScH6v0csdJ37NhhijGI70SjiZE8GHmLFy9me70CEc8RwXesWrWKGqwowWIJRqFbABUXfQ03LT9ZngpqaI+dMzqNFF+fTo8rQePPKTtHpweRb1s62ZYPLqxCNrIEA0OqOPyjUhH6DVTE8CwwYxp46KGHeoZ6gDAtGhFBKoSEOTgHQlH7Dej9HNGlNRVmC2hmzG//Jg0rPSm9ebyBvmK/0XuNvStJs7afocf/fX8NPQ7DEPv8M99/r5Juw5AU4Z9THldDrlw/Y0hv0WIMiueHMgK3bdvmd75aBhIGmxieVp538ODBgO9xbDcCj8n+eXOnb47mRuCqqbl0OuBgGAc3ZXvoUM97PqaIJ2Ubgc/xhcJUwYf/4akJfscDsXbtWrYVHhhqQyWD9CD25kCJI4R/8Tdhr3AQE8CQz7c56P2hbAWj0CUAMUBzvrWLNpg49EMgIm9/5RPJ0onZPedBQDdm+T+mjQ//t8vTSihQieIcjgqHZa2liBhpYIm/R4zzK8GQjvlfjFBi2McUJdoFVhh/PbCRQBOvyP49H85RNp9sYu/4KL94tec9PqT/6A/n2Ls+1I5hH8eVsQU1RL9ebzBFuQ4g2GfF82TxsKPqiN+rNnQrwd9FLED8G7wEy1zaPgVwAxDA3VMafqJhx6eCNXcOoa/B4COLmgchAgMKVjwH1n/IfLeAclg1o6dpmVrwm9HjMXopsWro5+j2Ajg/+V5fq/+cPJeL3HddKrluUALb8wHhnGv19wC4XRHKBcRcK1ragfztQKByxTk4WMJGD+Kwj+8M5OaJ4DoOHz7M9npRupJmo0sACABx1OZrZQMWFfT9Vy5FI1KpUNQyfu+FiB6Kxl+4bpLYw1DRRlQ2hCgKC40ojlRKIBLlvM/hbqJVIgh7BFAbrpXHbs9PYVu9PDcph44CCCBxo/G2IT4xrfyi1u+4iLKx9PZ+jvJz4mKScMGQLn4PGhHTExoZ8QFY+ihoWB4NFEcyxAlQuIi4CIz0VALCbAFNcAMPRQ34/TxOgNdAwNdHPACJI77PP8eLMh6gXGypN5MmIhpgSNSofZf4t0IZgRwYgDBMxc8GKzgX/j8H2+LnYfCKmGEE6hLAgj9eoI0DCz8Q8AQW/7lak0V/trmTbfnEg88iWKQWDEKGDdY2Sjhr/EQQuOHfhaJWkeL7Wix7DrJ8ymygskCACGapCQ8ikKe3PuIA2Bd/l/L9cHAfEWMiGMrFaQs2ix6vxQpcAcQ4YRuBLtGBK4AYxxVAjOMKIMZxBRDjuAKIaQj5fxEYQxWp1xpyAAAAAElFTkSuQmCC;clipPath=inset(0% 3.91% 0% 7.03%);" vertex="1" parent="RjxbD7o49rSYXZ3SKn72-16">
          <mxGeometry x="9.979999999999995" y="40" width="33.04347826086956" height="40" as="geometry" />
        </mxCell>
        <mxCell id="-QjtrjUzRDEMRZ5MF8oH-28" value="4" style="rounded=1;whiteSpace=wrap;html=1;fillColor=#007CBD;strokeColor=none;fontColor=#FFFFFF;fontStyle=1;fontSize=22;labelBackgroundColor=none;" parent="1" vertex="1">
          <mxGeometry x="559" y="352" width="40" height="38" as="geometry" />
        </mxCell>
        <mxCell id="jZVaUwOg5UY3L9NAnvdq-72" value="Amazon Lex" style="outlineConnect=0;fontColor=#232F3E;gradientColor=#4AB29A;gradientDirection=north;fillColor=#116D5B;strokeColor=#ffffff;dashed=0;verticalLabelPosition=bottom;verticalAlign=top;align=center;html=1;fontSize=12;fontStyle=0;aspect=fixed;shape=mxgraph.aws4.resourceIcon;resIcon=mxgraph.aws4.lex;labelBackgroundColor=#ffffff;spacingTop=8;" parent="1" vertex="1">
          <mxGeometry x="300" y="202" width="78" height="78" as="geometry" />
        </mxCell>
        <mxCell id="jZVaUwOg5UY3L9NAnvdq-73" value="Amazon S3" style="outlineConnect=0;fontColor=#232F3E;gradientColor=#60A337;gradientDirection=north;fillColor=#277116;strokeColor=#ffffff;dashed=0;verticalLabelPosition=bottom;verticalAlign=top;align=center;html=1;fontSize=12;fontStyle=0;aspect=fixed;shape=mxgraph.aws4.resourceIcon;resIcon=mxgraph.aws4.s3;labelBackgroundColor=none;" parent="1" vertex="1">
          <mxGeometry x="476" y="179" width="78" height="78" as="geometry" />
        </mxCell>
        <mxCell id="jZVaUwOg5UY3L9NAnvdq-74" value="Amazon API&lt;br&gt;Gateway&lt;br&gt;" style="outlineConnect=0;fontColor=#232F3E;gradientColor=#945DF2;gradientDirection=north;fillColor=#5A30B5;strokeColor=#ffffff;dashed=0;verticalLabelPosition=bottom;verticalAlign=top;align=center;html=1;fontSize=12;fontStyle=0;aspect=fixed;shape=mxgraph.aws4.resourceIcon;resIcon=mxgraph.aws4.api_gateway;labelBackgroundColor=none;" parent="1" vertex="1">
          <mxGeometry x="472" y="378.99999999999994" width="78" height="78" as="geometry" />
        </mxCell>
        <mxCell id="jZVaUwOg5UY3L9NAnvdq-75" value="Amazon Kinesis&lt;br&gt;Data Streams&lt;br&gt;" style="outlineConnect=0;fontColor=#232F3E;gradientColor=#945DF2;gradientDirection=north;fillColor=#5A30B5;strokeColor=#ffffff;dashed=0;verticalLabelPosition=bottom;verticalAlign=top;align=center;html=1;fontSize=12;fontStyle=0;aspect=fixed;shape=mxgraph.aws4.resourceIcon;resIcon=mxgraph.aws4.kinesis_data_streams;labelBackgroundColor=#ffffff;spacingTop=5;" parent="1" vertex="1">
          <mxGeometry x="609" y="378.99999999999994" width="78" height="78" as="geometry" />
        </mxCell>
        <mxCell id="jZVaUwOg5UY3L9NAnvdq-76" value="Amazon&lt;br&gt;ElasticSearch&lt;br&gt;" style="outlineConnect=0;fontColor=#232F3E;gradientColor=#945DF2;gradientDirection=north;fillColor=#5A30B5;strokeColor=#ffffff;dashed=0;verticalLabelPosition=bottom;verticalAlign=top;align=center;html=1;fontSize=12;fontStyle=0;aspect=fixed;shape=mxgraph.aws4.resourceIcon;resIcon=mxgraph.aws4.elasticsearch_service;labelBackgroundColor=none;" parent="1" vertex="1">
          <mxGeometry x="744" y="232.5" width="78" height="78" as="geometry" />
        </mxCell>
        <mxCell id="jZVaUwOg5UY3L9NAnvdq-77" value="DynamoDB&lt;br&gt;Streams&lt;br&gt;" style="outlineConnect=0;fontColor=#232F3E;gradientColor=#4D72F3;gradientDirection=north;fillColor=#3334B9;strokeColor=#ffffff;dashed=0;verticalLabelPosition=bottom;verticalAlign=top;align=center;html=1;fontSize=12;fontStyle=0;aspect=fixed;shape=mxgraph.aws4.resourceIcon;resIcon=mxgraph.aws4.dynamodb;labelBackgroundColor=#ffffff;spacingTop=6;" parent="1" vertex="1">
          <mxGeometry x="923.0000000000002" y="232.5" width="78" height="78" as="geometry" />
        </mxCell>
        <mxCell id="jZVaUwOg5UY3L9NAnvdq-78" value="Subscriber&lt;br&gt;Processor&lt;br&gt;" style="outlineConnect=0;fontColor=#232F3E;gradientColor=none;fillColor=#D05C17;strokeColor=none;dashed=0;verticalLabelPosition=bottom;verticalAlign=top;align=center;html=1;fontSize=12;fontStyle=0;aspect=fixed;pointerEvents=1;shape=mxgraph.aws4.lambda_function;labelBackgroundColor=none;" parent="1" vertex="1">
          <mxGeometry x="1040" y="232.5" width="78" height="78" as="geometry" />
        </mxCell>
        <mxCell id="jZVaUwOg5UY3L9NAnvdq-80" value="Request&lt;br&gt;Processor&lt;br&gt;" style="outlineConnect=0;fontColor=#232F3E;gradientColor=none;fillColor=#D05C17;strokeColor=none;dashed=0;verticalLabelPosition=bottom;verticalAlign=top;align=center;html=1;fontSize=12;fontStyle=0;aspect=fixed;pointerEvents=1;shape=mxgraph.aws4.lambda_function;labelBackgroundColor=#ffffff;spacingTop=7;" parent="1" vertex="1">
          <mxGeometry x="744" y="378.9999999999999" width="78" height="78" as="geometry" />
        </mxCell>
        <mxCell id="jZVaUwOg5UY3L9NAnvdq-81" value="Amazon&lt;br&gt;DynamoDB&lt;br&gt;" style="outlineConnect=0;fontColor=#232F3E;gradientColor=#4D72F3;gradientDirection=north;fillColor=#3334B9;strokeColor=#ffffff;dashed=0;verticalLabelPosition=bottom;verticalAlign=top;align=center;html=1;fontSize=12;fontStyle=0;aspect=fixed;shape=mxgraph.aws4.resourceIcon;resIcon=mxgraph.aws4.dynamodb;labelBackgroundColor=#ffffff;" parent="1" vertex="1">
          <mxGeometry x="923.0000000000003" y="378.99999999999994" width="78" height="78" as="geometry" />
        </mxCell>
        <mxCell id="jZVaUwOg5UY3L9NAnvdq-82" value="ERL Function" style="outlineConnect=0;fontColor=#232F3E;gradientColor=none;fillColor=#D05C17;strokeColor=none;dashed=0;verticalLabelPosition=bottom;verticalAlign=top;align=center;html=1;fontSize=12;fontStyle=0;aspect=fixed;pointerEvents=1;shape=mxgraph.aws4.lambda_function;labelBackgroundColor=#ffffff;spacingTop=2;" parent="1" vertex="1">
          <mxGeometry x="1040" y="378.99999999999994" width="78" height="78" as="geometry" />
        </mxCell>
        <mxCell id="jZVaUwOg5UY3L9NAnvdq-83" value="Amazon Cognito" style="outlineConnect=0;fontColor=#232F3E;gradientColor=#F54749;gradientDirection=north;fillColor=#C7131F;strokeColor=#ffffff;dashed=0;verticalLabelPosition=bottom;verticalAlign=top;align=center;html=1;fontSize=12;fontStyle=0;aspect=fixed;shape=mxgraph.aws4.resourceIcon;resIcon=mxgraph.aws4.cognito;labelBackgroundColor=none;" parent="1" vertex="1">
          <mxGeometry x="300" y="556" width="78" height="78" as="geometry" />
        </mxCell>
        <mxCell id="jZVaUwOg5UY3L9NAnvdq-84" value="Amazon Polly" style="outlineConnect=0;fontColor=#232F3E;gradientColor=#4AB29A;gradientDirection=north;fillColor=#116D5B;strokeColor=#ffffff;dashed=0;verticalLabelPosition=bottom;verticalAlign=top;align=center;html=1;fontSize=12;fontStyle=0;aspect=fixed;shape=mxgraph.aws4.resourceIcon;resIcon=mxgraph.aws4.polly;labelBackgroundColor=none;" parent="1" vertex="1">
          <mxGeometry x="300" y="717.5" width="78" height="78" as="geometry" />
        </mxCell>
        <mxCell id="jZVaUwOg5UY3L9NAnvdq-85" value="AWS IoT Core" style="outlineConnect=0;fontColor=#232F3E;gradientColor=#60A337;gradientDirection=north;fillColor=#277116;strokeColor=#ffffff;dashed=0;verticalLabelPosition=bottom;verticalAlign=top;align=center;html=1;fontSize=12;fontStyle=0;aspect=fixed;shape=mxgraph.aws4.resourceIcon;resIcon=mxgraph.aws4.iot_core;labelBackgroundColor=none;" parent="1" vertex="1">
          <mxGeometry x="472" y="560.5" width="78" height="78" as="geometry" />
        </mxCell>
        <mxCell id="jZVaUwOg5UY3L9NAnvdq-86" value="Amazon Pinpoint" style="outlineConnect=0;fontColor=#232F3E;gradientColor=#F54749;gradientDirection=north;fillColor=#C7131F;strokeColor=#ffffff;dashed=0;verticalLabelPosition=bottom;verticalAlign=top;align=center;html=1;fontSize=12;fontStyle=0;aspect=fixed;shape=mxgraph.aws4.resourceIcon;resIcon=mxgraph.aws4.pinpoint;labelBackgroundColor=none;" parent="1" vertex="1">
          <mxGeometry x="472" y="717.4999999999999" width="78" height="78" as="geometry" />
        </mxCell>
        <mxCell id="jZVaUwOg5UY3L9NAnvdq-87" value="IoT Rule" style="outlineConnect=0;fontColor=#232F3E;gradientColor=none;fillColor=#277116;strokeColor=none;dashed=0;verticalLabelPosition=bottom;verticalAlign=top;align=center;html=1;fontSize=12;fontStyle=0;aspect=fixed;pointerEvents=1;shape=mxgraph.aws4.rule;labelBackgroundColor=none;" parent="1" vertex="1">
          <mxGeometry x="625" y="560.5" width="46" height="78" as="geometry" />
        </mxCell>
        <mxCell id="jZVaUwOg5UY3L9NAnvdq-88" value="Users&lt;br&gt;" style="outlineConnect=0;fontColor=#232F3E;gradientColor=none;fillColor=#232F3E;strokeColor=none;dashed=0;verticalLabelPosition=bottom;verticalAlign=top;align=center;html=1;fontSize=12;fontStyle=0;aspect=fixed;pointerEvents=1;shape=mxgraph.aws4.users;labelBackgroundColor=none;" parent="1" vertex="1">
          <mxGeometry x="687" y="717.4999999999999" width="78" height="78" as="geometry" />
        </mxCell>
        <mxCell id="jZVaUwOg5UY3L9NAnvdq-89" value="Amazon&lt;br&gt;Comprehend&lt;br&gt;Medical&lt;br&gt;" style="outlineConnect=0;fontColor=#232F3E;gradientColor=#4AB29A;gradientDirection=north;fillColor=#116D5B;strokeColor=#ffffff;dashed=0;verticalLabelPosition=bottom;verticalAlign=top;align=center;html=1;fontSize=12;fontStyle=0;aspect=fixed;shape=mxgraph.aws4.resourceIcon;resIcon=mxgraph.aws4.comprehend;labelBackgroundColor=none;" parent="1" vertex="1">
          <mxGeometry x="923.0000000000001" y="556" width="78" height="78" as="geometry" />
        </mxCell>
        <mxCell id="jZVaUwOg5UY3L9NAnvdq-90" value="Amazon Personalize" style="outlineConnect=0;fontColor=#232F3E;gradientColor=#4AB29A;gradientDirection=north;fillColor=#116D5B;strokeColor=#ffffff;dashed=0;verticalLabelPosition=bottom;verticalAlign=top;align=center;html=1;fontSize=12;fontStyle=0;aspect=fixed;shape=mxgraph.aws4.resourceIcon;resIcon=mxgraph.aws4.personalize;labelBackgroundColor=none;" parent="1" vertex="1">
          <mxGeometry x="923.0000000000001" y="717.5" width="78" height="78" as="geometry" />
        </mxCell>
        <mxCell id="jZVaUwOg5UY3L9NAnvdq-91" value="Amazon&lt;br&gt;Pinpoint&lt;br&gt;" style="outlineConnect=0;fontColor=#232F3E;gradientColor=#F54749;gradientDirection=north;fillColor=#C7131F;strokeColor=#ffffff;dashed=0;verticalLabelPosition=bottom;verticalAlign=top;align=center;html=1;fontSize=12;fontStyle=0;aspect=fixed;shape=mxgraph.aws4.resourceIcon;resIcon=mxgraph.aws4.pinpoint;labelBackgroundColor=none;" parent="1" vertex="1">
          <mxGeometry x="1210.5" y="147.5" width="78" height="78" as="geometry" />
        </mxCell>
        <mxCell id="jZVaUwOg5UY3L9NAnvdq-92" value="User" style="outlineConnect=0;fontColor=#232F3E;gradientColor=none;fillColor=#232F3E;strokeColor=none;dashed=0;verticalLabelPosition=bottom;verticalAlign=top;align=center;html=1;fontSize=12;fontStyle=0;aspect=fixed;pointerEvents=1;shape=mxgraph.aws4.user;labelBackgroundColor=none;" parent="1" vertex="1">
          <mxGeometry x="1431.5000000000002" y="147.5" width="78" height="78" as="geometry" />
        </mxCell>
        <mxCell id="jZVaUwOg5UY3L9NAnvdq-93" value="API" style="outlineConnect=0;fontColor=#232F3E;gradientColor=none;fillColor=#232F3E;strokeColor=none;dashed=0;verticalLabelPosition=bottom;verticalAlign=top;align=center;html=1;fontSize=12;fontStyle=0;aspect=fixed;pointerEvents=1;shape=mxgraph.aws4.external_sdk;labelBackgroundColor=none;" parent="1" vertex="1">
          <mxGeometry x="1436.5000000000002" y="256" width="68" height="78" as="geometry" />
        </mxCell>
        <mxCell id="jZVaUwOg5UY3L9NAnvdq-94" value="API&lt;br&gt;" style="outlineConnect=0;fontColor=#232F3E;gradientColor=none;fillColor=#232F3E;strokeColor=none;dashed=0;verticalLabelPosition=bottom;verticalAlign=top;align=center;html=1;fontSize=12;fontStyle=0;aspect=fixed;pointerEvents=1;shape=mxgraph.aws4.external_sdk;labelBackgroundColor=none;" parent="1" vertex="1">
          <mxGeometry x="1436.5000000000002" y="359.5" width="68" height="78" as="geometry" />
        </mxCell>
        <mxCell id="jZVaUwOg5UY3L9NAnvdq-97" value="AWS Lake&lt;br&gt;Formation&lt;br&gt;" style="outlineConnect=0;fontColor=#232F3E;gradientColor=#945DF2;gradientDirection=north;fillColor=#5A30B5;strokeColor=#ffffff;dashed=0;verticalLabelPosition=bottom;verticalAlign=top;align=center;html=1;fontSize=12;fontStyle=0;aspect=fixed;shape=mxgraph.aws4.resourceIcon;resIcon=mxgraph.aws4.lake_formation;labelBackgroundColor=#ffffff;" parent="1" vertex="1">
          <mxGeometry x="1210" y="556" width="78" height="78" as="geometry" />
        </mxCell>
        <mxCell id="jZVaUwOg5UY3L9NAnvdq-98" value="Execute Model" style="outlineConnect=0;fontColor=#232F3E;gradientColor=none;fillColor=#D05C17;strokeColor=none;dashed=0;verticalLabelPosition=bottom;verticalAlign=top;align=center;html=1;fontSize=12;fontStyle=0;aspect=fixed;pointerEvents=1;shape=mxgraph.aws4.lambda_function;labelBackgroundColor=none;" parent="1" vertex="1">
          <mxGeometry x="1210" y="717.4999999999999" width="78" height="78" as="geometry" />
        </mxCell>
        <mxCell id="jZVaUwOg5UY3L9NAnvdq-99" value="Related &quot;Casual&quot;&lt;br&gt;Data&lt;br&gt;" style="outlineConnect=0;fontColor=#232F3E;gradientColor=none;fillColor=#BE0917;strokeColor=none;dashed=0;verticalLabelPosition=bottom;verticalAlign=top;align=center;html=1;fontSize=12;fontStyle=0;aspect=fixed;pointerEvents=1;shape=mxgraph.aws4.fleet_management;labelBackgroundColor=none;" parent="1" vertex="1">
          <mxGeometry x="1431" y="556" width="78" height="78" as="geometry" />
        </mxCell>
        <mxCell id="jZVaUwOg5UY3L9NAnvdq-100" value="Research&lt;br&gt;" style="outlineConnect=0;fontColor=#232F3E;gradientColor=none;fillColor=#116D5B;strokeColor=none;dashed=0;verticalLabelPosition=bottom;verticalAlign=top;align=center;html=1;fontSize=12;fontStyle=0;aspect=fixed;pointerEvents=1;shape=mxgraph.aws4.sagemaker_notebook;labelBackgroundColor=none;" parent="1" vertex="1">
          <mxGeometry x="1436" y="738" width="68" height="78" as="geometry" />
        </mxCell>
        <mxCell id="jZVaUwOg5UY3L9NAnvdq-102" value="2" style="rounded=1;whiteSpace=wrap;html=1;fillColor=#007CBD;strokeColor=none;fontColor=#FFFFFF;fontStyle=1;fontSize=22;labelBackgroundColor=none;" parent="1" vertex="1">
          <mxGeometry x="319" y="507.5" width="40" height="38" as="geometry" />
        </mxCell>
        <mxCell id="jZVaUwOg5UY3L9NAnvdq-103" value="3" style="rounded=1;whiteSpace=wrap;html=1;fillColor=#007CBD;strokeColor=none;fontColor=#FFFFFF;fontStyle=1;fontSize=22;labelBackgroundColor=none;" parent="1" vertex="1">
          <mxGeometry x="491" y="674.5" width="40" height="38" as="geometry" />
        </mxCell>
        <mxCell id="jZVaUwOg5UY3L9NAnvdq-104" value="5" style="rounded=1;whiteSpace=wrap;html=1;fillColor=#007CBD;strokeColor=none;fontColor=#FFFFFF;fontStyle=1;fontSize=22;labelBackgroundColor=none;" parent="1" vertex="1">
          <mxGeometry x="880" y="218" width="40" height="38" as="geometry" />
        </mxCell>
        <mxCell id="jZVaUwOg5UY3L9NAnvdq-105" value="6" style="rounded=1;whiteSpace=wrap;html=1;fillColor=#007CBD;strokeColor=none;fontColor=#FFFFFF;fontStyle=1;fontSize=22;labelBackgroundColor=none;" parent="1" vertex="1">
          <mxGeometry x="880" y="363" width="40" height="38" as="geometry" />
        </mxCell>
        <mxCell id="jZVaUwOg5UY3L9NAnvdq-106" value="7" style="rounded=1;whiteSpace=wrap;html=1;fillColor=#007CBD;strokeColor=none;fontColor=#FFFFFF;fontStyle=1;fontSize=22;labelBackgroundColor=none;" parent="1" vertex="1">
          <mxGeometry x="880" y="539" width="40" height="38" as="geometry" />
        </mxCell>
        <mxCell id="jZVaUwOg5UY3L9NAnvdq-107" value="8" style="rounded=1;whiteSpace=wrap;html=1;fillColor=#007CBD;strokeColor=none;fontColor=#FFFFFF;fontStyle=1;fontSize=22;labelBackgroundColor=none;" parent="1" vertex="1">
          <mxGeometry x="880" y="695" width="40" height="38" as="geometry" />
        </mxCell>
        <mxCell id="jZVaUwOg5UY3L9NAnvdq-108" value="9" style="rounded=1;whiteSpace=wrap;html=1;fillColor=#007CBD;strokeColor=none;fontColor=#FFFFFF;fontStyle=1;fontSize=22;labelBackgroundColor=none;" parent="1" vertex="1">
          <mxGeometry x="1130" y="525" width="40" height="38" as="geometry" />
        </mxCell>
        <mxCell id="jZVaUwOg5UY3L9NAnvdq-96" value="Amazon&lt;br&gt;SageMaker&lt;br&gt;" style="outlineConnect=0;fontColor=#232F3E;gradientColor=#4AB29A;gradientDirection=north;fillColor=#116D5B;strokeColor=#ffffff;dashed=0;verticalLabelPosition=bottom;verticalAlign=top;align=center;html=1;fontSize=12;fontStyle=0;aspect=fixed;shape=mxgraph.aws4.resourceIcon;resIcon=mxgraph.aws4.sagemaker;labelBackgroundColor=#ffffff;spacingTop=7;" parent="1" vertex="1">
          <mxGeometry x="1210" y="416.49999999999983" width="78" height="78" as="geometry" />
        </mxCell>
        <mxCell id="jZVaUwOg5UY3L9NAnvdq-163" value="" style="group" parent="1" vertex="1" connectable="0">
          <mxGeometry x="252.50000000000006" y="743.5" width="21" height="26" as="geometry" />
        </mxCell>
        <mxCell id="jZVaUwOg5UY3L9NAnvdq-162" value="" style="rounded=0;whiteSpace=wrap;html=1;labelBackgroundColor=#ffffff;fontSize=14;align=center;strokeColor=none;" parent="jZVaUwOg5UY3L9NAnvdq-163" vertex="1">
          <mxGeometry width="21" height="26" as="geometry" />
        </mxCell>
        <mxCell id="jZVaUwOg5UY3L9NAnvdq-161" value="" style="outlineConnect=0;fontColor=#232F3E;gradientColor=none;fillColor=#B3B3B3;strokeColor=none;dashed=0;verticalLabelPosition=bottom;verticalAlign=top;align=center;html=1;fontSize=12;fontStyle=0;aspect=fixed;pointerEvents=1;shape=mxgraph.aws4.encrypted_data;labelBackgroundColor=#ffffff;" parent="jZVaUwOg5UY3L9NAnvdq-163" vertex="1">
          <mxGeometry width="21" height="26" as="geometry" />
        </mxCell>
        <mxCell id="jZVaUwOg5UY3L9NAnvdq-164" value="" style="group" parent="1" vertex="1" connectable="0">
          <mxGeometry x="253.00000000000006" y="667.5" width="21" height="26" as="geometry" />
        </mxCell>
        <mxCell id="jZVaUwOg5UY3L9NAnvdq-165" value="" style="rounded=0;whiteSpace=wrap;html=1;labelBackgroundColor=#ffffff;fontSize=14;align=center;strokeColor=none;" parent="jZVaUwOg5UY3L9NAnvdq-164" vertex="1">
          <mxGeometry width="21" height="26" as="geometry" />
        </mxCell>
        <mxCell id="jZVaUwOg5UY3L9NAnvdq-166" value="" style="outlineConnect=0;fontColor=#232F3E;gradientColor=none;fillColor=#B3B3B3;strokeColor=none;dashed=0;verticalLabelPosition=bottom;verticalAlign=top;align=center;html=1;fontSize=12;fontStyle=0;aspect=fixed;pointerEvents=1;shape=mxgraph.aws4.encrypted_data;labelBackgroundColor=#ffffff;" parent="jZVaUwOg5UY3L9NAnvdq-164" vertex="1">
          <mxGeometry width="21" height="26" as="geometry" />
        </mxCell>
        <mxCell id="jZVaUwOg5UY3L9NAnvdq-167" value="" style="group" parent="1" vertex="1" connectable="0">
          <mxGeometry x="253.00000000000006" y="579" width="21" height="26" as="geometry" />
        </mxCell>
        <mxCell id="jZVaUwOg5UY3L9NAnvdq-168" value="" style="rounded=0;whiteSpace=wrap;html=1;labelBackgroundColor=#ffffff;fontSize=14;align=center;strokeColor=none;" parent="jZVaUwOg5UY3L9NAnvdq-167" vertex="1">
          <mxGeometry width="21" height="26" as="geometry" />
        </mxCell>
        <mxCell id="jZVaUwOg5UY3L9NAnvdq-169" value="" style="outlineConnect=0;fontColor=#232F3E;gradientColor=none;fillColor=#B3B3B3;strokeColor=none;dashed=0;verticalLabelPosition=bottom;verticalAlign=top;align=center;html=1;fontSize=12;fontStyle=0;aspect=fixed;pointerEvents=1;shape=mxgraph.aws4.encrypted_data;labelBackgroundColor=#ffffff;" parent="jZVaUwOg5UY3L9NAnvdq-167" vertex="1">
          <mxGeometry width="21" height="26" as="geometry" />
        </mxCell>
        <mxCell id="jZVaUwOg5UY3L9NAnvdq-170" value="" style="group" parent="1" vertex="1" connectable="0">
          <mxGeometry x="253.00000000000006" y="439.5" width="21" height="26" as="geometry" />
        </mxCell>
        <mxCell id="jZVaUwOg5UY3L9NAnvdq-171" value="" style="rounded=0;whiteSpace=wrap;html=1;labelBackgroundColor=#ffffff;fontSize=14;align=center;strokeColor=none;" parent="jZVaUwOg5UY3L9NAnvdq-170" vertex="1">
          <mxGeometry width="21" height="26" as="geometry" />
        </mxCell>
        <mxCell id="jZVaUwOg5UY3L9NAnvdq-172" value="" style="outlineConnect=0;fontColor=#232F3E;gradientColor=none;fillColor=#B3B3B3;strokeColor=none;dashed=0;verticalLabelPosition=bottom;verticalAlign=top;align=center;html=1;fontSize=12;fontStyle=0;aspect=fixed;pointerEvents=1;shape=mxgraph.aws4.encrypted_data;labelBackgroundColor=#ffffff;" parent="jZVaUwOg5UY3L9NAnvdq-170" vertex="1">
          <mxGeometry width="21" height="26" as="geometry" />
        </mxCell>
        <mxCell id="jZVaUwOg5UY3L9NAnvdq-173" value="" style="group" parent="1" vertex="1" connectable="0">
          <mxGeometry x="252.50000000000006" y="404.5" width="21" height="26" as="geometry" />
        </mxCell>
        <mxCell id="jZVaUwOg5UY3L9NAnvdq-174" value="" style="rounded=0;whiteSpace=wrap;html=1;labelBackgroundColor=#ffffff;fontSize=14;align=center;strokeColor=none;" parent="jZVaUwOg5UY3L9NAnvdq-173" vertex="1">
          <mxGeometry width="21" height="26" as="geometry" />
        </mxCell>
        <mxCell id="jZVaUwOg5UY3L9NAnvdq-175" value="" style="outlineConnect=0;fontColor=#232F3E;gradientColor=none;fillColor=#B3B3B3;strokeColor=none;dashed=0;verticalLabelPosition=bottom;verticalAlign=top;align=center;html=1;fontSize=12;fontStyle=0;aspect=fixed;pointerEvents=1;shape=mxgraph.aws4.encrypted_data;labelBackgroundColor=#ffffff;" parent="jZVaUwOg5UY3L9NAnvdq-173" vertex="1">
          <mxGeometry width="21" height="26" as="geometry" />
        </mxCell>
        <mxCell id="jZVaUwOg5UY3L9NAnvdq-176" value="" style="group" parent="1" vertex="1" connectable="0">
          <mxGeometry x="253.00000000000006" y="369" width="21" height="26" as="geometry" />
        </mxCell>
        <mxCell id="jZVaUwOg5UY3L9NAnvdq-177" value="" style="rounded=0;whiteSpace=wrap;html=1;labelBackgroundColor=#ffffff;fontSize=14;align=center;strokeColor=none;" parent="jZVaUwOg5UY3L9NAnvdq-176" vertex="1">
          <mxGeometry width="21" height="26" as="geometry" />
        </mxCell>
        <mxCell id="jZVaUwOg5UY3L9NAnvdq-178" value="" style="outlineConnect=0;fontColor=#232F3E;gradientColor=none;fillColor=#B3B3B3;strokeColor=none;dashed=0;verticalLabelPosition=bottom;verticalAlign=top;align=center;html=1;fontSize=12;fontStyle=0;aspect=fixed;pointerEvents=1;shape=mxgraph.aws4.encrypted_data;labelBackgroundColor=#ffffff;" parent="jZVaUwOg5UY3L9NAnvdq-176" vertex="1">
          <mxGeometry width="21" height="26" as="geometry" />
        </mxCell>
        <mxCell id="jZVaUwOg5UY3L9NAnvdq-179" value="" style="group" parent="1" vertex="1" connectable="0">
          <mxGeometry x="1350" y="384.5" width="21" height="26" as="geometry" />
        </mxCell>
        <mxCell id="jZVaUwOg5UY3L9NAnvdq-180" value="" style="rounded=0;whiteSpace=wrap;html=1;labelBackgroundColor=#ffffff;fontSize=14;align=center;strokeColor=none;" parent="jZVaUwOg5UY3L9NAnvdq-179" vertex="1">
          <mxGeometry width="21" height="26" as="geometry" />
        </mxCell>
        <mxCell id="jZVaUwOg5UY3L9NAnvdq-181" value="" style="outlineConnect=0;fontColor=#232F3E;gradientColor=none;fillColor=#B3B3B3;strokeColor=none;dashed=0;verticalLabelPosition=bottom;verticalAlign=top;align=center;html=1;fontSize=12;fontStyle=0;aspect=fixed;pointerEvents=1;shape=mxgraph.aws4.encrypted_data;labelBackgroundColor=#ffffff;" parent="jZVaUwOg5UY3L9NAnvdq-179" vertex="1">
          <mxGeometry width="21" height="26" as="geometry" />
        </mxCell>
        <mxCell id="jZVaUwOg5UY3L9NAnvdq-182" value="" style="group" parent="1" vertex="1" connectable="0">
          <mxGeometry x="1350" y="282" width="21" height="26" as="geometry" />
        </mxCell>
        <mxCell id="jZVaUwOg5UY3L9NAnvdq-183" value="" style="rounded=0;whiteSpace=wrap;html=1;labelBackgroundColor=#ffffff;fontSize=14;align=center;strokeColor=none;" parent="jZVaUwOg5UY3L9NAnvdq-182" vertex="1">
          <mxGeometry width="21" height="26" as="geometry" />
        </mxCell>
        <mxCell id="jZVaUwOg5UY3L9NAnvdq-184" value="" style="outlineConnect=0;fontColor=#232F3E;gradientColor=none;fillColor=#B3B3B3;strokeColor=none;dashed=0;verticalLabelPosition=bottom;verticalAlign=top;align=center;html=1;fontSize=12;fontStyle=0;aspect=fixed;pointerEvents=1;shape=mxgraph.aws4.encrypted_data;labelBackgroundColor=#ffffff;" parent="jZVaUwOg5UY3L9NAnvdq-182" vertex="1">
          <mxGeometry width="21" height="26" as="geometry" />
        </mxCell>
        <mxCell id="jZVaUwOg5UY3L9NAnvdq-185" value="" style="group" parent="1" vertex="1" connectable="0">
          <mxGeometry x="1350" y="581.5" width="21" height="26" as="geometry" />
        </mxCell>
        <mxCell id="jZVaUwOg5UY3L9NAnvdq-186" value="" style="rounded=0;whiteSpace=wrap;html=1;labelBackgroundColor=#ffffff;fontSize=14;align=center;strokeColor=none;" parent="jZVaUwOg5UY3L9NAnvdq-185" vertex="1">
          <mxGeometry width="21" height="26" as="geometry" />
        </mxCell>
        <mxCell id="jZVaUwOg5UY3L9NAnvdq-187" value="" style="outlineConnect=0;fontColor=#232F3E;gradientColor=none;fillColor=#B3B3B3;strokeColor=none;dashed=0;verticalLabelPosition=bottom;verticalAlign=top;align=center;html=1;fontSize=12;fontStyle=0;aspect=fixed;pointerEvents=1;shape=mxgraph.aws4.encrypted_data;labelBackgroundColor=#ffffff;" parent="jZVaUwOg5UY3L9NAnvdq-185" vertex="1">
          <mxGeometry width="21" height="26" as="geometry" />
        </mxCell>
        <mxCell id="jZVaUwOg5UY3L9NAnvdq-188" value="" style="group" parent="1" vertex="1" connectable="0">
          <mxGeometry x="1350" y="672" width="21" height="26" as="geometry" />
        </mxCell>
        <mxCell id="jZVaUwOg5UY3L9NAnvdq-189" value="" style="rounded=0;whiteSpace=wrap;html=1;labelBackgroundColor=#ffffff;fontSize=14;align=center;strokeColor=none;" parent="jZVaUwOg5UY3L9NAnvdq-188" vertex="1">
          <mxGeometry width="21" height="26" as="geometry" />
        </mxCell>
        <mxCell id="jZVaUwOg5UY3L9NAnvdq-190" value="" style="outlineConnect=0;fontColor=#232F3E;gradientColor=none;fillColor=#B3B3B3;strokeColor=none;dashed=0;verticalLabelPosition=bottom;verticalAlign=top;align=center;html=1;fontSize=12;fontStyle=0;aspect=fixed;pointerEvents=1;shape=mxgraph.aws4.encrypted_data;labelBackgroundColor=#ffffff;" parent="jZVaUwOg5UY3L9NAnvdq-188" vertex="1">
          <mxGeometry width="21" height="26" as="geometry" />
        </mxCell>
        <mxCell id="RjxbD7o49rSYXZ3SKn72-3" value="Metamap" style="swimlane;fontSize=14;align=center;swimlaneFillColor=#f4f4f4;fillColor=#f4f4f4;startSize=33;container=1;pointerEvents=0;collapsible=0;recursiveResize=0;" vertex="1" parent="1">
          <mxGeometry x="32.5" y="909.5" width="210" height="560" as="geometry" />
        </mxCell>
        <mxCell id="RjxbD7o49rSYXZ3SKn72-4" value="Mobile / Web" style="outlineConnect=0;fontColor=#232F3E;gradientColor=none;strokeColor=none;fillColor=#277116;dashed=0;verticalLabelPosition=bottom;verticalAlign=top;align=center;html=1;fontSize=12;fontStyle=0;shape=mxgraph.aws4.mobile_client;labelBackgroundColor=none;" vertex="1" parent="RjxbD7o49rSYXZ3SKn72-3">
          <mxGeometry x="28.5" y="150" width="53" height="100" as="geometry" />
        </mxCell>
        <mxCell id="RjxbD7o49rSYXZ3SKn72-5" value="1" style="rounded=1;whiteSpace=wrap;html=1;fillColor=#007CBD;strokeColor=none;fontColor=#FFFFFF;fontStyle=1;fontSize=22;labelBackgroundColor=none;" vertex="1" parent="RjxbD7o49rSYXZ3SKn72-3">
          <mxGeometry x="143" y="61" width="40" height="38" as="geometry" />
        </mxCell>
        <mxCell id="RjxbD7o49rSYXZ3SKn72-6" value="" style="shape=image;html=1;verticalAlign=top;verticalLabelPosition=bottom;labelBackgroundColor=#ffffff;imageAspect=0;aspect=fixed;image=https://cdn3.iconfinder.com/data/icons/payment-method-1/64/_ebay-128.png" vertex="1" parent="1">
          <mxGeometry x="610" y="460" width="128" height="128" as="geometry" />
        </mxCell>
        <mxCell id="RjxbD7o49rSYXZ3SKn72-7" value="" style="shape=image;html=1;verticalAlign=top;verticalLabelPosition=bottom;labelBackgroundColor=#ffffff;imageAspect=0;aspect=fixed;image=https://cdn3.iconfinder.com/data/icons/payment-method-1/64/_ebay-128.png" vertex="1" parent="1">
          <mxGeometry x="610" y="460" width="128" height="128" as="geometry" />
        </mxCell>
        <mxCell id="RjxbD7o49rSYXZ3SKn72-8" value="" style="shape=image;html=1;verticalAlign=top;verticalLabelPosition=bottom;labelBackgroundColor=#ffffff;imageAspect=0;aspect=fixed;image=https://cdn3.iconfinder.com/data/icons/payment-method-1/64/_ebay-128.png" vertex="1" parent="1">
          <mxGeometry x="610" y="460" width="128" height="128" as="geometry" />
        </mxCell>
      </root>
    </mxGraphModel>
  </diagram>
</mxfile>
